<?xml version="1.0" encoding="UTF-8"?>
<!-- Generator: visioncortex VTracer 0.6.3 -->
<svg version="1.1" xmlns="http://www.w3.org/2000/svg" width="1280" height="1280">
<path d="M0 0 C2.61 0.56 5.18 0.79 7.84 0.94 C15.86 1.52 23.56 2.4 31.03 5.44 C32.61 5.81 34.19 6.15 35.78 6.44 C39.23 7.1 42.67 7.76 46.09 8.5 C46.83 8.66 47.56 8.81 48.32 8.97 C50.03 9.44 50.03 9.44 51.03 10.44 C52.17 10.54 53.3 10.65 54.47 10.75 C58.88 11.24 62.56 12.72 66.62 14.45 C69.71 15.72 72.8 16.6 76.03 17.44 C76.03 18.1 76.03 18.76 76.03 19.44 C78.01 19.44 79.99 19.44 82.03 19.44 C82.03 20.1 82.03 20.76 82.03 21.44 C83.21 21.41 83.21 21.41 84.41 21.38 C87.03 21.44 87.03 21.44 89.03 22.44 C89.03 23.1 89.03 23.76 89.03 24.44 C89.88 24.38 90.72 24.32 91.59 24.25 C95.77 24.48 98.29 25.64 102.03 27.44 C102.03 28.1 102.03 28.76 102.03 29.44 C103.68 29.44 105.33 29.44 107.03 29.44 C107.36 30.43 107.69 31.42 108.03 32.44 C110.35 33.16 112.68 33.82 115.03 34.44 C115.69 35.1 116.35 35.76 117.03 36.44 C119.36 37.13 121.69 37.79 124.03 38.44 C127.83 40.04 127.83 40.04 129.03 42.44 C129.82 42.58 130.6 42.73 131.41 42.88 C134.4 43.52 134.98 44.3 137.03 46.44 C139.63 47.63 139.63 47.63 142.03 48.44 C142.03 49.1 142.03 49.76 142.03 50.44 C143.24 50.62 143.24 50.62 144.47 50.81 C145.31 51.02 146.16 51.23 147.03 51.44 C147.36 52.1 147.69 52.76 148.03 53.44 C149.36 53.78 150.7 54.12 152.03 54.44 C152.69 55.1 153.35 55.76 154.03 56.44 C155.02 56.77 156.01 57.1 157.03 57.44 C157.69 58.1 158.35 58.76 159.03 59.44 C161.93 61.49 161.93 61.49 164.97 62.75 C168.03 64.44 168.03 64.44 169.84 66.75 C172.93 70.54 176.78 73.05 181.03 75.44 C181.69 75.44 182.35 75.44 183.03 75.44 C183.86 76.45 184.68 77.46 185.53 78.5 C188.77 82.45 192.52 85.07 196.76 87.86 C198.78 89.26 200.33 90.69 202.03 92.44 C203.02 93.1 204.01 93.76 205.03 94.44 C205.91 95.46 206.77 96.5 207.59 97.56 C211.5 102.23 216.25 105.72 221.03 109.44 C225.57 113.09 229.53 116.76 233.03 121.44 C233.03 122.1 233.03 122.76 233.03 123.44 C234.52 122.94 234.52 122.94 236.03 122.44 C236.23 123.12 236.42 123.79 236.62 124.49 C238.58 128.59 241.5 131.4 244.66 134.63 C245.86 135.87 247.06 137.11 248.26 138.36 C248.79 138.9 249.32 139.45 249.87 140.01 C251.03 141.44 251.03 141.44 251.03 143.44 C252.02 143.77 253.01 144.1 254.03 144.44 C254.03 145.1 254.03 145.76 254.03 146.44 C255.02 146.11 256.01 145.78 257.03 145.44 C257.17 146.27 257.17 146.27 257.32 147.12 C258.21 150.03 259.65 152.08 261.41 154.56 C262.01 155.43 262.62 156.3 263.24 157.2 C265.01 159.64 265.01 159.64 268.03 161.44 C268.3 162.16 268.57 162.88 268.84 163.63 C269.95 166.25 270.87 167.55 272.72 169.63 C278.43 176.04 283.06 183.1 286.99 190.72 C287.93 192.61 287.93 192.61 290.03 193.44 C291.01 195.22 291.91 197.04 292.78 198.88 C294.63 202.78 296.62 206.47 298.88 210.16 C312.62 232.83 333.03 268.97 333.03 296.44 C333.69 296.77 334.35 297.1 335.03 297.44 C335.24 299.46 335.45 301.48 335.63 303.5 C336.1 306.92 336.96 310.12 337.87 313.45 C340.23 322.51 341.59 331.65 342.84 340.92 C343.22 343.67 343.61 346.43 344.01 349.18 C346.74 368.62 347.24 387.95 347.22 407.56 C347.22 409.03 347.22 409.03 347.22 410.53 C347.14 471.33 347.14 471.33 341.03 477.44 C340.75 479.08 340.51 480.73 340.28 482.38 C334.71 516.41 319.75 554.76 300.89 583.58 C298.81 586.77 296.95 590.06 295.09 593.38 C288.08 605.76 280.14 617.25 271.49 628.54 C270.14 630.3 268.8 632.07 267.47 633.85 C263.19 639.52 258.77 645.04 254.16 650.44 C253.51 651.2 253.51 651.2 252.84 651.98 C243.68 662.59 233.96 672.68 224.03 682.57 C222.27 684.33 220.51 686.1 218.75 687.86 C209.95 696.67 200.82 704.73 191.03 712.44 C190.34 712.99 189.64 713.55 188.92 714.11 C177.99 722.73 166.7 730.85 155.03 738.44 C155.64 741.88 156.95 743.95 159.09 746.69 C159.64 747.4 160.19 748.1 160.75 748.83 C161.18 749.36 161.6 749.89 162.03 750.44 C160.33 751.72 158.62 752.99 156.91 754.25 C155.96 754.96 155 755.67 154.02 756.4 C145.7 762.08 145.7 762.08 141.03 762.44 C138.89 761.36 138.89 761.36 136.78 759.75 C136.08 759.23 135.37 758.71 134.64 758.18 C133.03 756.44 133.03 756.44 133.03 752.44 C125.52 755.08 118.61 758.55 111.57 762.26 C83.08 777.08 51.42 785.34 20.03 791.44 C19.27 791.59 18.52 791.74 17.74 791.89 C-39.18 802.73 -122.81 806.91 -176.97 782.44 C-179.23 779.04 -179.21 777.88 -179.16 773.9 C-179.16 772.82 -179.15 771.75 -179.14 770.64 C-179.13 769.52 -179.11 768.41 -179.09 767.25 C-179.08 766.12 -179.08 764.99 -179.07 763.82 C-179.04 761.03 -179.01 758.23 -178.97 755.44 C-175.43 754.66 -173 754.39 -169.47 755.25 C-168.69 755.44 -167.91 755.63 -167.1 755.83 C-164.65 756.53 -162.33 757.48 -159.97 758.44 C-157.98 758.82 -155.98 759.16 -153.97 759.44 C-153.97 760.1 -153.97 760.76 -153.97 761.44 C-152.02 761.37 -150.06 761.31 -148.11 761.24 C-145.97 761.44 -145.97 761.44 -144.12 762.41 C-141.19 763.81 -138.57 763.83 -135.34 764 C-129.16 764.34 -129.16 764.34 -126.97 765.44 C-124.07 765.81 -121.18 766.14 -118.28 766.44 C-116.69 766.6 -115.11 766.77 -113.52 766.94 C-112.81 767.01 -112.11 767.08 -111.38 767.16 C-109.51 767.38 -107.64 767.65 -105.77 767.95 C-101.34 768.52 -96.99 768.69 -92.52 768.79 C-91.61 768.81 -90.7 768.84 -89.76 768.86 C-86.79 768.94 -83.82 769 -80.84 769.06 C-79.83 769.09 -78.81 769.11 -77.76 769.13 C-63.62 769.43 -49.49 769.49 -35.34 769.13 C-34.21 769.1 -34.21 769.1 -33.06 769.08 C-25.18 768.89 -17.52 768.38 -9.76 766.94 C-6.97 766.44 -4.21 766.1 -1.39 765.8 C12.23 764.35 25.18 761.75 38.4 758.16 C40.77 757.51 43.14 756.88 45.52 756.27 C49.03 755.35 52.53 754.41 56.03 753.44 C56.96 753.19 57.89 752.93 58.84 752.67 C63.66 751.3 68.1 749.57 72.64 747.46 C75.27 746.34 77.92 745.48 80.66 744.63 C92.28 740.86 103.16 734.95 114.03 729.44 C115.04 728.95 116.05 728.46 117.09 727.95 C119.71 726.61 122.06 725.17 124.47 723.5 C127.11 721.71 129.74 719.99 132.53 718.44 C135.3 716.9 137.91 715.21 140.53 713.44 C150.34 706.84 150.34 706.84 154.41 705.88 C154.94 705.73 155.48 705.59 156.03 705.44 C156.36 704.45 156.69 703.46 157.03 702.44 C159.22 700.64 159.22 700.64 162.03 698.69 C166.57 695.5 170.94 692.18 175.25 688.69 C177.03 687.44 177.03 687.44 179.03 687.44 C179.03 686.78 179.03 686.12 179.03 685.44 C180.67 683.99 182.37 682.6 184.09 681.25 C188.11 678.04 191.82 674.78 195.38 671.09 C197.05 669.42 198.79 667.9 200.59 666.38 C211.31 657.1 221.5 646.77 229.65 635.13 C230.1 634.58 230.56 634.02 231.03 633.44 C231.69 633.44 232.35 633.44 233.03 633.44 C233.03 632.78 233.03 632.12 233.03 631.44 C233.69 631.44 234.35 631.44 235.03 631.44 C235.4 630.63 235.4 630.63 235.78 629.81 C237.34 626.86 239.07 624.14 241.03 621.44 C241.69 621.44 242.35 621.44 243.03 621.44 C243.31 620.86 243.59 620.27 243.87 619.67 C244.98 617.55 246.18 615.67 247.57 613.72 C248.31 612.67 248.31 612.67 249.07 611.6 C249.59 610.87 250.12 610.13 250.66 609.38 C251.46 608.24 251.46 608.24 252.29 607.07 C255.27 602.87 258.31 598.74 261.41 594.63 C264.76 590.06 267.3 585.29 269.71 580.17 C271.02 577.47 272.35 574.92 274.03 572.44 C274.69 572.44 275.35 572.44 276.03 572.44 C276.21 571.57 276.21 571.57 276.4 570.69 C277.06 568.33 277.98 566.55 279.22 564.44 C283.77 556.42 287.8 548.28 291.1 539.67 C291.96 537.62 292.93 535.83 294.09 533.94 C296.18 530.47 297.17 526.91 298.26 523.03 C299.01 520.52 299.9 518.16 300.91 515.75 C307.3 500.17 311.48 483.93 314.57 467.41 C315.03 465.44 315.03 465.44 316.03 464.44 C316.32 463.01 316.55 461.57 316.75 460.13 C316.88 459.25 317 458.36 317.14 457.44 C317.33 456.02 317.33 456.02 317.53 454.56 C317.67 453.61 317.8 452.65 317.94 451.67 C318.73 445.92 319.43 440.19 319.82 434.4 C320.03 432.44 320.03 432.44 321.03 429.44 C321.25 427.11 321.42 424.78 321.57 422.45 C321.61 421.75 321.65 421.06 321.7 420.35 C321.84 418.09 321.97 415.83 322.09 413.56 C322.14 412.79 322.18 412.01 322.23 411.21 C323.88 381.77 323.86 351.51 318.38 322.44 C317.56 317.77 317.04 313.05 316.46 308.35 C316.11 305.38 316.11 305.38 315.03 302.44 C314.51 300.1 314.02 297.75 313.53 295.4 C313.21 293.45 313.21 293.45 312.03 292.44 C311.54 289.94 311.09 287.45 310.66 284.94 C309.58 278.89 308.21 273.2 306.03 267.44 C305.68 266.37 305.33 265.29 304.97 264.19 C304.07 261.43 304.07 261.43 302.91 258.81 C302.03 256.44 302.03 256.44 302.03 252.44 C301.37 252.11 300.71 251.78 300.03 251.44 C299.03 248.44 299.03 248.44 299.03 244.44 C298.37 244.44 297.71 244.44 297.03 244.44 C294.03 237.94 294.03 237.94 294.03 233.44 C293.37 233.44 292.71 233.44 292.03 233.44 C290.81 230.56 289.85 227.78 289.03 224.75 C288.3 221.4 288.3 221.4 286.03 219.44 C286.03 218.45 286.03 217.46 286.03 216.44 C285.37 216.11 284.71 215.78 284.03 215.44 C283.15 213.15 282.5 210.83 281.81 208.47 C281.22 206.25 281.22 206.25 279.03 205.44 C278.57 204.23 278.57 204.23 278.09 203 C277.19 200.14 277.19 200.14 274.03 198.44 C272.21 195.85 271.12 193.95 270.59 190.81 C270.26 188.28 270.26 188.28 268.03 186.94 C265.42 184.98 265.51 183.57 265.03 180.44 C264.37 179.78 263.71 179.12 263.03 178.44 C262.6 177.68 262.17 176.91 261.72 176.13 C260.13 173.34 260.13 173.34 257.66 171.19 C254.81 168.2 253.21 165.28 251.29 161.66 C249.08 157.76 246.2 154.61 243.03 151.44 C242.08 149.99 241.14 148.53 240.22 147.06 C237.86 143.47 235.6 140.92 232.03 138.44 C229.89 136.3 229.61 135.31 229.03 132.44 C228.37 132.44 227.71 132.44 227.03 132.44 C225.2 130.5 223.56 128.45 221.88 126.38 C220.01 124.42 218.44 123.6 216.03 122.44 C215.76 121.7 215.5 120.95 215.22 120.19 C213.73 116.74 211.71 115.24 208.83 112.91 C206.39 110.92 204.23 108.69 202.03 106.44 C199.42 103.77 197.14 101.51 194.03 99.44 C194.03 98.78 194.03 98.12 194.03 97.44 C193.04 97.11 192.05 96.78 191.03 96.44 C191.03 95.78 191.03 95.12 191.03 94.44 C190.04 94.11 189.05 93.78 188.03 93.44 C186.36 91.78 184.69 90.11 183.03 88.44 C180.64 86.48 178.15 84.65 175.66 82.81 C174.96 82.3 174.27 81.79 173.56 81.26 C172.11 80.19 170.67 79.12 169.22 78.06 C167.05 76.46 164.9 74.84 162.75 73.21 C161.41 72.2 160.06 71.2 158.72 70.19 C158.09 69.71 157.46 69.23 156.82 68.74 C153.31 66.05 153.31 66.05 149.03 65.44 C149.03 64.45 149.03 63.46 149.03 62.44 C148.23 62.23 147.42 62.03 146.59 61.81 C143.65 60.68 141.81 59.7 139.28 57.94 C134.63 54.73 129.78 51.95 124.84 49.19 C124.07 48.75 123.3 48.32 122.5 47.87 C118.42 45.6 114.53 43.77 110.03 42.44 C107.91 41.5 106.22 40.6 104.43 39.12 C101.1 36.78 97.53 35.15 93.84 33.44 C93.08 33.08 92.32 32.73 91.54 32.36 C82.17 27.94 82.17 27.94 72.03 26.44 C72.03 25.78 72.03 25.12 72.03 24.44 C71.41 24.28 70.79 24.12 70.15 23.96 C64.83 22.56 59.65 20.97 54.47 19.13 C25.65 9.11 -6.05 4.76 -36.41 3.19 C-37.19 3.15 -37.98 3.11 -38.79 3.07 C-53.76 2.31 -68.57 2.43 -83.53 3.25 C-84.32 3.29 -85.12 3.34 -85.93 3.38 C-105.81 3.43 -105.81 3.43 -123.97 9.44 C-122.32 11.09 -120.24 10.76 -117.97 10.94 C-113.08 11.33 -113.08 11.33 -111.97 12.44 C-110 12.79 -108.01 13.1 -106.03 13.38 C-100.3 14.22 -94.64 15.24 -88.97 16.44 C-88.97 17.1 -88.97 17.76 -88.97 18.44 C-86 18.77 -83.03 19.1 -79.97 19.44 C-79.97 20.1 -79.97 20.76 -79.97 21.44 C-78.79 21.41 -78.79 21.41 -77.59 21.38 C-74.97 21.44 -74.97 21.44 -72.97 22.44 C-72.97 23.1 -72.97 23.76 -72.97 24.44 C-70.99 24.44 -69.01 24.44 -66.97 24.44 C-66.47 25.92 -66.47 25.92 -65.97 27.44 C-64.94 27.62 -64.94 27.62 -63.89 27.81 C-62.53 28.06 -62.53 28.06 -61.16 28.31 C-60.26 28.48 -59.37 28.64 -58.45 28.81 C-55.97 29.44 -55.97 29.44 -52.97 31.44 C-52.97 32.1 -52.97 32.76 -52.97 33.44 C-50.66 33.77 -48.35 34.1 -45.97 34.44 C-45.97 35.1 -45.97 35.76 -45.97 36.44 C-45 36.73 -44.03 37.02 -43.03 37.31 C-39.97 38.44 -39.97 38.44 -38.97 40.44 C-36.64 41.45 -34.31 42.45 -31.97 43.44 C-31.31 44.1 -30.65 44.76 -29.97 45.44 C-26.83 48.18 -23.67 50.88 -20.41 53.48 C-14.54 58.18 -9.21 63.08 -4.06 68.57 C-2.06 70.77 -2.06 70.77 1.03 70.44 C1.36 72.09 1.69 73.74 2.03 75.44 C3.02 75.44 4.01 75.44 5.03 75.44 C6.05 77.1 7.04 78.77 8.03 80.44 C8.79 81.03 9.56 81.62 10.34 82.22 C13.39 84.74 15.42 87.42 17.72 90.63 C20.34 94.64 20.34 94.64 24.03 97.44 C24.34 98.43 24.65 99.42 24.97 100.44 C25.32 101.43 25.67 102.42 26.03 103.44 C27.02 103.77 28.01 104.1 29.03 104.44 C29.36 105.1 29.69 105.76 30.03 106.44 C30.69 106.77 31.35 107.1 32.03 107.44 C32.38 108.77 32.71 110.1 33.03 111.44 C33.84 113.04 34.7 114.63 35.59 116.19 C43.65 130.74 50.6 145.35 55.03 161.44 C55.4 162.75 55.4 162.75 55.78 164.08 C59.62 178.58 61.6 193.46 62.03 208.44 C62.05 209.14 62.08 209.84 62.1 210.56 C62.91 240.68 62.91 240.68 59.03 248.44 C58.88 249.91 58.76 251.39 58.67 252.86 C58.12 258.73 56.61 264.09 54.84 269.69 C54.53 270.7 54.21 271.71 53.89 272.75 C51.4 280.57 48.63 288.06 45.03 295.44 C44.72 296.09 44.4 296.74 44.07 297.41 C33.84 318.19 20.22 335.36 3.97 351.75 C3.14 352.59 2.32 353.42 1.46 354.29 C-4.05 359.77 -9.81 364.7 -15.97 369.44 C-16.77 370.06 -17.57 370.68 -18.39 371.32 C-23.68 375.44 -23.68 375.44 -25.97 375.44 C-26.3 376.43 -26.63 377.42 -26.97 378.44 C-29.11 379.98 -31.22 381.38 -33.47 382.75 C-34.76 383.55 -36.05 384.36 -37.34 385.16 C-37.97 385.55 -38.59 385.94 -39.24 386.34 C-41.4 387.71 -43.46 389.2 -45.53 390.69 C-49.99 393.71 -54.79 395.42 -59.85 397.17 C-63.01 398.32 -63.01 398.32 -65.62 400.33 C-70.4 403.34 -75.49 404.85 -80.84 406.56 C-81.89 406.91 -82.94 407.26 -84.03 407.61 C-92.4 410.35 -100.72 412.5 -109.41 414 C-110.14 414.13 -110.88 414.26 -111.65 414.39 C-116.74 415.27 -121.82 415.97 -126.97 416.44 C-124.44 421.22 -121 424.77 -117.28 428.63 C-112.56 433.6 -108.09 438.62 -103.89 444.04 C-100.89 447.77 -97.61 451.24 -94.36 454.75 C-91.54 457.91 -89.01 461.23 -86.54 464.66 C-84.83 466.59 -83.33 467.45 -80.97 468.44 C-80.97 469.43 -80.97 470.42 -80.97 471.44 C-79.98 471.77 -78.99 472.1 -77.97 472.44 C-77.05 473.8 -76.14 475.16 -75.27 476.54 C-70.24 483.9 -70.24 483.9 -62.97 488.44 C-62.97 489.43 -62.97 490.42 -62.97 491.44 C-62.31 491.11 -61.65 490.78 -60.97 490.44 C-60.77 491.11 -60.57 491.78 -60.37 492.47 C-58.43 496.58 -55.61 499.58 -52.59 502.94 C-51.44 504.24 -50.29 505.54 -49.13 506.85 C-48.59 507.46 -48.04 508.07 -47.48 508.7 C-45.57 510.89 -43.76 513.15 -41.97 515.44 C-41.31 515.11 -40.65 514.78 -39.97 514.44 C-39.72 515.15 -39.47 515.87 -39.21 516.61 C-37.84 519.74 -36.16 522.08 -34.03 524.75 C-33.34 525.63 -32.65 526.52 -31.94 527.43 C-31.29 528.09 -30.64 528.76 -29.97 529.44 C-28.98 529.44 -27.99 529.44 -26.97 529.44 C-26.91 529.98 -26.84 530.53 -26.78 531.09 C-25.63 534.42 -23.37 536.53 -20.97 539 C-16.32 543.91 -12.03 548.95 -7.84 554.26 C-5.98 556.63 -5.98 556.63 -2.97 558.44 C-2.28 559.76 -1.62 561.1 -0.97 562.44 C1 565.08 3.04 567.45 5.37 569.78 C12.43 576.84 18.9 584.35 25.02 592.22 C26.96 594.36 28.38 595.39 31.03 596.44 C30.7 597.43 30.37 598.42 30.03 599.44 C30.69 599.44 31.35 599.44 32.03 599.44 C36.03 603.91 36.03 603.91 36.03 606.44 C37.02 606.11 38.01 605.78 39.03 605.44 C39.42 606.3 39.81 607.16 40.22 608.04 C42.18 611.71 44.42 614.66 47.09 617.81 C47.54 618.36 47.99 618.9 48.45 619.47 C49.59 620.83 50.81 622.14 52.03 623.44 C52.69 623.44 53.35 623.44 54.03 623.44 C54.51 624.24 54.98 625.05 55.47 625.88 C56.83 628.73 56.83 628.73 60.03 629.44 C60.17 630.01 60.31 630.59 60.45 631.18 C61.28 634.41 63.16 636.13 65.41 638.56 C66.2 639.43 66.99 640.3 67.81 641.2 C70.02 643.57 70.02 643.57 73.03 645.44 C73.7 646.77 74.37 648.11 75.03 649.44 C76.02 650.1 77.01 650.76 78.03 651.44 C79.03 652.44 79.03 652.44 79.75 654.09 C81.57 657.43 84.04 660.15 86.53 663 C87.06 663.61 87.59 664.23 88.14 664.86 C96.34 674.99 96.34 674.99 106.03 683.44 C106.03 684.1 106.03 684.76 106.03 685.44 C107.02 685.77 108.01 686.1 109.03 686.44 C111.81 689.44 112.89 692.56 114.03 696.44 C113.34 696.69 112.65 696.95 111.94 697.21 C107.47 699.1 103.37 701.64 99.19 704.08 C95.76 705.56 94.49 705.7 91.03 704.44 C88.41 702.56 88.41 702.56 86.03 700.44 C85.26 699.76 85.26 699.76 84.47 699.06 C81.62 695.84 79.39 692.52 78.03 688.44 C77.04 688.11 76.05 687.78 75.03 687.44 C73.37 685.44 71.7 683.44 70.03 681.44 C69.04 681.11 68.05 680.78 67.03 680.44 C66.65 679.12 66.32 677.78 66.03 676.44 C64.96 674.77 64.96 674.77 63.6 673.24 C62.87 672.39 62.87 672.39 62.13 671.52 C61.62 670.93 61.12 670.35 60.59 669.75 C59.84 668.86 59.84 668.86 59.07 667.95 C56.42 664.75 56.42 664.75 53.03 662.44 C53.03 661.78 53.03 661.12 53.03 660.44 C51.38 660.44 49.73 660.44 48.03 660.44 C48.03 659.78 48.03 659.12 48.03 658.44 C23.28 658.42 -1.48 658.4 -26.24 658.39 C-37.73 658.38 -49.22 658.38 -60.72 658.36 C-70.73 658.35 -80.74 658.35 -90.76 658.35 C-96.06 658.34 -101.37 658.34 -106.68 658.33 C-111.66 658.33 -116.65 658.32 -121.64 658.33 C-123.48 658.33 -125.31 658.32 -127.15 658.32 C-129.64 658.32 -132.14 658.32 -134.63 658.32 C-135.37 658.32 -136.11 658.31 -136.87 658.31 C-140.2 658.03 -140.2 658.03 -142.97 659.44 C-143.09 661.68 -143.15 663.92 -143.17 666.16 C-143.18 666.86 -143.19 667.57 -143.2 668.29 C-143.24 670.62 -143.26 672.95 -143.28 675.29 C-143.31 676.9 -143.33 678.51 -143.35 680.13 C-143.4 684.38 -143.45 688.63 -143.5 692.88 C-143.55 697.22 -143.61 701.56 -143.66 705.89 C-143.77 714.41 -143.87 722.92 -143.97 731.44 C-146.37 730.97 -148.76 730.5 -151.16 730.02 C-151.84 729.89 -152.51 729.76 -153.21 729.62 C-158.17 728.64 -162.98 727.44 -167.78 725.88 C-168.46 725.67 -169.14 725.46 -169.84 725.25 C-172.8 724.31 -174.74 723.67 -176.97 721.44 C-179.02 708.1 -178.31 694 -178.52 680.55 C-178.54 679.29 -178.56 678.03 -178.58 676.74 C-179.06 647.94 -179.13 619.14 -179.13 590.34 C-179.13 582.68 -179.14 575.02 -179.14 567.36 C-179.16 548.91 -179.16 530.47 -179.17 512.03 C-179.17 503.29 -179.18 494.55 -179.18 485.81 C-179.19 455.82 -179.2 425.83 -179.21 395.84 C-179.21 393.97 -179.21 392.1 -179.21 390.24 C-179.21 388.36 -179.21 386.49 -179.21 384.62 C-179.21 380.86 -179.21 377.11 -179.21 373.35 C-179.21 372.42 -179.21 371.49 -179.21 370.53 C-179.21 340.19 -179.23 309.85 -179.25 279.51 C-179.28 247.32 -179.29 215.12 -179.29 182.93 C-179.29 179.4 -179.29 175.88 -179.29 172.35 C-179.29 171.48 -179.29 170.61 -179.29 169.72 C-179.29 155.75 -179.3 141.77 -179.32 127.8 C-179.33 113.81 -179.34 99.81 -179.33 85.82 C-179.32 77.5 -179.33 69.18 -179.34 60.87 C-179.35 54.68 -179.35 48.48 -179.34 42.29 C-179.34 39.77 -179.34 37.26 -179.35 34.74 C-179.36 31.34 -179.35 27.95 -179.34 24.55 C-179.35 23.56 -179.36 22.56 -179.36 21.54 C-179.36 20.64 -179.35 19.74 -179.34 18.81 C-179.34 18.03 -179.34 17.25 -179.34 16.45 C-178.86 13.86 -178.06 13.02 -175.97 11.44 C-173.18 10.67 -170.49 10.05 -167.66 9.5 C-161.88 8.31 -156.24 7.01 -150.59 5.31 C-135.6 0.91 -119.75 -0.18 -104.26 -1.86 C-103.55 -1.94 -102.85 -2.02 -102.12 -2.1 C-101.43 -2.17 -100.73 -2.25 -100.01 -2.33 C-98.07 -2.55 -96.14 -2.81 -94.21 -3.08 C-64.85 -6.76 -28.89 -6.79 0 0 Z M-142.97 36.44 C-143.27 39.08 -143.27 39.08 -143.22 42.23 C-143.22 43.47 -143.23 44.71 -143.23 45.98 C-143.23 47.37 -143.22 48.76 -143.22 50.15 C-143.22 51.62 -143.22 53.08 -143.22 54.55 C-143.23 58.59 -143.22 62.63 -143.22 66.67 C-143.21 71.02 -143.21 75.37 -143.22 79.73 C-143.22 88.26 -143.22 96.79 -143.21 105.32 C-143.2 115.25 -143.2 125.17 -143.2 135.1 C-143.2 152.8 -143.19 170.5 -143.17 188.21 C-143.16 205.41 -143.15 222.6 -143.15 239.8 C-143.15 240.86 -143.15 241.92 -143.15 243.01 C-143.15 244.07 -143.15 245.13 -143.15 246.22 C-143.15 265.77 -143.15 285.32 -143.14 304.87 C-143.14 311.8 -143.14 318.72 -143.14 325.65 C-143.13 334.09 -143.13 342.52 -143.12 350.96 C-143.12 355.26 -143.11 359.57 -143.11 363.88 C-143.12 367.82 -143.11 371.75 -143.1 375.69 C-143.1 377.12 -143.1 378.55 -143.1 379.98 C-143.11 381.91 -143.1 383.85 -143.1 385.78 C-143.1 386.85 -143.1 387.93 -143.09 389.04 C-143.24 391.39 -143.24 391.39 -141.97 392.44 C-126.07 393.35 -109.87 392.21 -94.97 386.44 C-87.97 384.44 -87.97 384.44 -85.55 383.78 C-76.08 380.96 -67.69 376.27 -59.05 371.56 C-56.38 370.13 -53.69 368.77 -50.97 367.44 C-50.97 366.78 -50.97 366.12 -50.97 365.44 C-50.28 365.21 -49.59 364.98 -48.87 364.74 C-45.34 363.16 -42.48 360.96 -39.47 358.56 C-38.91 358.13 -38.36 357.7 -37.78 357.25 C-36.69 356.39 -35.6 355.53 -34.52 354.67 C-33.05 353.5 -31.56 352.37 -30.06 351.24 C-29.37 350.65 -28.68 350.05 -27.97 349.44 C-27.97 348.78 -27.97 348.12 -27.97 347.44 C-26.98 347.11 -25.99 346.78 -24.97 346.44 C-24.97 345.78 -24.97 345.12 -24.97 344.44 C-24.43 344.23 -23.9 344.03 -23.34 343.81 C-20.05 341.91 -17.37 339.39 -14.97 336.44 C-14.97 335.78 -14.97 335.12 -14.97 334.44 C-14.31 334.44 -13.65 334.44 -12.97 334.44 C-11.3 333.11 -11.3 333.11 -9.97 331.44 C-9.97 330.78 -9.97 330.12 -9.97 329.44 C-9.31 329.44 -8.65 329.44 -7.97 329.44 C-6.24 327.39 -4.63 325.34 -3.03 323.19 C-2.59 322.6 -2.15 322.02 -1.69 321.41 C-0.83 320.27 0.03 319.13 0.88 317.98 C1.84 316.7 2.84 315.45 3.85 314.2 C5.31 312.38 5.31 312.38 5.03 309.44 C5.69 309.44 6.35 309.44 7.03 309.44 C9.07 306.53 10.03 305.04 10.03 301.44 C10.69 301.44 11.35 301.44 12.03 301.44 C12.36 299.79 12.69 298.14 13.03 296.44 C13.69 296.44 14.35 296.44 15.03 296.44 C15.27 295.81 15.52 295.18 15.77 294.53 C17.36 290.46 18.95 286.48 21.03 282.63 C23.44 278.01 24.76 273.08 26.2 268.1 C27.03 265.44 27.03 265.44 28.03 264.44 C28.6 262.25 28.99 260.05 29.4 257.83 C29.84 255.44 30.31 253.06 30.78 250.69 C32.93 239.49 33.5 228.6 33.42 217.22 C33.41 214.38 33.42 211.54 33.44 208.7 C33.45 197.36 32.72 186.48 30.03 175.44 C29.7 175.11 29.37 174.78 29.03 174.44 C28.82 172.8 28.82 172.8 28.59 171.13 C28.1 167.87 27.49 166.26 26.03 163.44 C25.65 161.45 25.31 159.45 25.03 157.44 C24.37 157.44 23.71 157.44 23.03 157.44 C23.05 156.49 23.07 155.54 23.09 154.56 C23.26 151.53 23.26 151.53 22.03 149.44 C21.37 149.44 20.71 149.44 20.03 149.44 C19.97 148.49 19.91 147.54 19.84 146.56 C19.1 141.34 16.53 137.02 14.03 132.44 C13.41 131.27 13.41 131.27 12.77 130.08 C11.55 127.85 10.3 125.64 9.03 123.44 C8.6 122.68 8.16 121.92 7.71 121.13 C7.28 120.41 6.85 119.69 6.41 118.94 C6.02 118.29 5.64 117.64 5.24 116.97 C4.01 115.13 4.01 115.13 1.03 114.44 C0.31 112.8 -0.35 111.12 -0.97 109.44 C-5.03 103.03 -10.53 97.5 -15.66 91.94 C-16.31 91.22 -16.96 90.5 -17.64 89.76 C-18.27 89.09 -18.89 88.41 -19.54 87.72 C-20.11 87.11 -20.67 86.5 -21.25 85.88 C-23.15 84.28 -24.54 83.84 -26.97 83.44 C-26.97 82.45 -26.97 81.46 -26.97 80.44 C-27.59 80.36 -28.21 80.27 -28.84 80.19 C-31.66 79.19 -31.69 78.08 -32.97 75.44 C-36.02 72.4 -36.02 72.4 -39.97 71.44 C-41.66 69.79 -43.32 68.13 -44.97 66.44 C-61 55.75 -124.31 17.78 -142.97 36.44 Z M-142.97 437.44 C-142.99 462.32 -143.01 487.2 -143.02 512.07 C-143.03 523.63 -143.03 535.18 -143.04 546.73 C-143.05 556.8 -143.06 566.87 -143.06 576.94 C-143.06 582.27 -143.07 587.6 -143.07 592.93 C-143.08 597.95 -143.08 602.97 -143.08 607.99 C-143.08 609.83 -143.08 611.67 -143.09 613.51 C-143.09 616.03 -143.09 618.55 -143.09 621.07 C-143.09 622.15 -143.09 622.15 -143.1 623.25 C-143.08 628.44 -142.55 633.2 -141.97 638.44 C-84.88 638.44 -27.79 638.44 31.03 638.44 C30.03 633.44 29.55 632.43 26.28 628.94 C25.56 628.16 24.83 627.38 24.09 626.57 C22.54 624.97 20.98 623.39 19.41 621.81 C16.87 619.27 14.62 616.59 12.36 613.79 C11.92 613.35 11.48 612.9 11.03 612.44 C10.37 612.44 9.71 612.44 9.03 612.44 C8.96 611.88 8.88 611.33 8.81 610.76 C7.74 607.57 5.88 605.76 3.59 603.31 C2.79 602.45 1.99 601.58 1.16 600.68 C-1.02 598.39 -3.24 596.18 -5.53 594 C-7.97 591.44 -7.97 591.44 -8.97 588.44 C-9.63 588.44 -10.29 588.44 -10.97 588.44 C-11.21 587.88 -11.44 587.33 -11.69 586.76 C-13.27 583.9 -15.24 581.77 -17.47 579.38 C-19.87 576.78 -22 574.39 -23.97 571.44 C-24.63 571.44 -25.29 571.44 -25.97 571.44 C-26.2 570.7 -26.42 569.95 -26.66 569.19 C-28.23 565.89 -30.04 564.58 -32.97 562.44 C-34.73 560.87 -35.81 559.81 -36.75 557.65 C-38.34 554.77 -40.4 552.89 -42.78 550.63 C-46.73 546.77 -49.9 543 -52.97 538.44 C-53.95 537.42 -54.95 536.42 -55.97 535.44 C-58.49 532.91 -60.49 530.16 -62.47 527.19 C-62.96 526.61 -63.46 526.03 -63.97 525.44 C-64.96 525.44 -65.95 525.44 -66.97 525.44 C-67.09 524.8 -67.22 524.16 -67.34 523.5 C-67.55 522.82 -67.76 522.14 -67.97 521.44 C-68.63 521.11 -69.29 520.78 -69.97 520.44 C-70.91 519.03 -71.85 517.61 -72.77 516.19 C-75.38 512.38 -78.47 508.87 -81.81 505.68 C-85.21 502.16 -88.06 498.22 -90.99 494.31 C-93.82 490.51 -93.82 490.51 -97.97 488.44 C-98.65 487.11 -99.32 485.78 -99.97 484.44 C-100.96 483.78 -101.95 483.12 -102.97 482.44 C-104.31 480.45 -105.65 478.45 -106.97 476.44 C-108.54 474.64 -110.14 472.87 -111.78 471.13 C-115.67 466.93 -119.23 462.64 -122.59 458.02 C-123.05 457.5 -123.5 456.98 -123.97 456.44 C-124.63 456.44 -125.29 456.44 -125.97 456.44 C-126.36 455.57 -126.36 455.57 -126.76 454.68 C-128.04 452.31 -129.47 450.56 -131.28 448.56 C-133.5 446.09 -135.65 443.61 -137.72 441 C-139.78 438.22 -139.78 438.22 -142.97 437.44 Z M-143.97 629.44 C-143.97 632.08 -143.97 634.72 -143.97 637.44 C-143.64 637.44 -143.31 637.44 -142.97 637.44 C-142.97 634.8 -142.97 632.16 -142.97 629.44 C-143.3 629.44 -143.63 629.44 -143.97 629.44 Z " fill="#F3F4F6" transform="translate(700.96826171875,233.560791015625)"/>
<path d="M0 0 C0 2.31 0 4.62 0 7 C-1.63 7.81 -3.25 8.63 -4.88 9.44 C-6.31 10.16 -7.74 10.87 -9.18 11.59 C-12.85 13.43 -16.52 15.26 -20.2 17.07 C-40.18 26.9 -58.51 38.99 -76.13 52.56 C-77.92 53.94 -79.71 55.29 -81.51 56.64 C-89.89 62.99 -97.51 70.01 -105.1 77.29 C-108.06 80.13 -111.09 82.87 -114.19 85.56 C-130.06 99.69 -143.62 116.83 -156.45 133.68 C-158.15 135.9 -159.87 138.1 -161.61 140.29 C-166.23 146.13 -170.4 152.03 -174.04 158.55 C-175.55 161.2 -177.1 163.8 -178.71 166.39 C-185.95 178.08 -192.1 190.05 -197.85 202.54 C-198.88 204.75 -199.97 206.92 -201.09 209.09 C-203.27 213.39 -204.89 217.84 -206.5 222.38 C-207.07 223.97 -207.64 225.56 -208.22 227.15 C-208.51 227.95 -208.79 228.75 -209.09 229.57 C-210 232.01 -211 234.39 -212 236.79 C-214.4 242.73 -215.94 248.85 -217.5 255.06 C-217.92 256.71 -217.92 256.71 -218.36 258.4 C-219.25 261.93 -220.13 265.46 -221 269 C-221.16 269.65 -221.33 270.31 -221.5 270.98 C-224.23 281.86 -226.21 292.7 -227.69 303.81 C-227.79 304.6 -227.9 305.39 -228.01 306.2 C-229.62 318.14 -230.9 329.94 -231 342 C-231.01 343.12 -231.03 344.24 -231.04 345.4 C-231.29 367.91 -230.79 390.01 -227.47 412.31 C-227.05 415.12 -226.66 417.93 -226.26 420.74 C-226 422.55 -225.74 424.35 -225.47 426.16 C-225.35 426.99 -225.24 427.82 -225.12 428.68 C-225 429.45 -224.88 430.23 -224.76 431.02 C-224.61 432.03 -224.61 432.03 -224.46 433.07 C-223.94 435.25 -223.03 437.01 -222 439 C-221.63 440.68 -221.31 442.37 -221.04 444.06 C-218.36 459.78 -213.61 474.88 -207.86 489.72 C-206.14 494.27 -204.59 498.88 -203.04 503.48 C-201.72 507.32 -200.12 510.56 -198 514 C-196.27 517.49 -194.67 521.04 -193.05 524.59 C-189.39 532.86 -189.39 532.86 -184 540 C-183.71 540.76 -183.42 541.53 -183.12 542.31 C-182.09 545.13 -182.09 545.13 -179.94 547.56 C-178 550 -178 550 -177.55 551.88 C-176.88 554.47 -175.71 556.18 -174.19 558.38 C-173.65 559.16 -173.11 559.94 -172.55 560.75 C-172.04 561.49 -171.53 562.24 -171 563 C-170.27 564.12 -169.54 565.25 -168.81 566.38 C-167.16 568.94 -167.16 568.94 -165.38 570.62 C-164 572 -164 572 -163.13 573.78 C-157.21 585.4 -144.91 602.73 -134 610 C-133.55 610.78 -133.09 611.57 -132.62 612.38 C-131.13 615.12 -131.13 615.12 -128.56 616.94 C-125.62 619.31 -124.04 621.84 -122 625 C-119.89 627.38 -118.14 628.92 -115.38 630.5 C-113 632 -113 632 -112.17 633.84 C-110.6 636.74 -108.51 638.15 -105.88 640.12 C-104.21 641.37 -102.58 642.65 -101 644 C-101 644.66 -101 645.32 -101 646 C-100.1 646.39 -100.1 646.39 -99.18 646.79 C-96.84 648.09 -95.79 649.27 -94.19 651.38 C-92.12 653.91 -90.33 655.59 -87.44 657.12 C-83.89 659.06 -81.81 661.12 -79 664 C-77.1 665.51 -75.15 666.95 -73.18 668.38 C-70.11 670.66 -67.15 673.07 -64.18 675.48 C-62.03 677.11 -62.03 677.11 -59.36 678.02 C-57 679 -57 679 -55 682 C-54.11 682.27 -53.23 682.54 -52.31 682.81 C-49.21 683.93 -48.03 684.68 -45.69 686.81 C-42.4 689.81 -38.94 691.86 -35.02 693.92 C-32.57 695.23 -30.36 696.69 -28.25 698.5 C-25.32 700.45 -22.38 701.09 -19 702 C-17.65 702.62 -16.3 703.27 -15 704 C-15 704.66 -15 705.32 -15 706 C-13.35 706 -11.7 706 -10 706 C-9.67 706.99 -9.34 707.98 -9 709 C-6.03 709.66 -3.06 710.32 0 711 C0 720.9 0 730.8 0 741 C-5.8 740.17 -9.33 739.13 -14.25 736.44 C-18.85 733.82 -18.85 733.82 -24 733 C-25.02 732.02 -26.02 731.02 -27 730 C-28.48 729.13 -30 728.32 -31.54 727.55 C-32.42 727.1 -33.31 726.65 -34.22 726.18 C-35.63 725.47 -35.63 725.47 -37.06 724.75 C-43.5 721.44 -49.68 718.16 -55.49 713.8 C-58.88 711.37 -62.44 709.24 -66 707.06 C-71.37 703.75 -76.4 700.31 -81.25 696.25 C-84.17 693.86 -87.17 691.59 -90.19 689.32 C-97.85 683.55 -105 677.55 -112 671 C-113.39 669.79 -114.79 668.58 -116.19 667.38 C-119.62 664.4 -122.8 661.22 -125.99 657.98 C-130.23 653.8 -134.8 649.99 -139.38 646.19 C-143.77 642.52 -147.68 638.41 -150.44 633.38 C-151.94 630.75 -151.94 630.75 -155.06 629 C-158 627 -158 627 -158.88 624.69 C-160.16 621.61 -161.46 620.6 -164 618.5 C-167.19 615.85 -168.77 614.03 -170 610 C-170.98 608.98 -171.98 607.98 -173 607 C-173 606.34 -173 605.68 -173 605 C-173.99 604.67 -174.98 604.34 -176 604 C-176 603.01 -176 602.02 -176 601 C-176.99 600.67 -177.98 600.34 -179 600 C-179.5 598.51 -179.5 598.51 -180 597 C-180.47 596.55 -180.95 596.09 -181.44 595.62 C-183.37 593.61 -184.08 591.61 -185 589 C-185.66 589 -186.32 589 -187 589 C-191 583.59 -191 583.59 -191 581 C-191.99 580.67 -192.98 580.34 -194 580 C-194.72 578.02 -195.38 576.02 -196 574 C-196.66 573.34 -197.32 572.68 -198 572 C-199.07 569.99 -200.03 567.94 -201 565.88 C-201.97 563.83 -201.97 563.83 -204 562 C-204.5 560.99 -204.99 559.98 -205.5 558.94 C-206.68 555.91 -206.68 555.91 -209 555 C-209.96 552.89 -209.96 552.89 -210.94 550.25 C-212.34 546.6 -213.74 543.23 -216 540 C-216.33 540 -216.66 540 -217 540 C-217.12 538.87 -217.25 537.73 -217.38 536.56 C-217.58 535.39 -217.79 534.21 -218 533 C-218.66 532.67 -219.32 532.34 -220 532 C-222 530 -222 530 -222.5 526.94 C-222.75 525.48 -222.75 525.48 -223 524 C-223.66 523.67 -224.32 523.34 -225 523 C-225.71 521.01 -226.37 519.01 -227 517 C-227.99 514.66 -228.98 512.33 -230 510 C-231.7 505.92 -233.12 501.76 -234.5 497.56 C-234.71 496.92 -234.93 496.28 -235.14 495.62 C-235.76 493.74 -236.38 491.87 -237 490 C-237.67 488 -238.33 486 -239 484 C-239.33 484 -239.66 484 -240 484 C-240.14 482.93 -240.29 481.86 -240.44 480.75 C-241.05 476.67 -241.77 473.52 -243.44 469.75 C-245.22 465.09 -245.69 460.38 -246.23 455.45 C-246.76 450.68 -247.55 446.03 -248.5 441.31 C-250.7 429.86 -251.1 418.18 -251.78 406.56 C-252 402.94 -252.27 399.32 -252.54 395.7 C-252.93 390.29 -253.19 384.92 -253.19 379.5 C-253.19 378.64 -253.19 377.79 -253.19 376.9 C-252.98 354.32 -250.68 331.91 -247.03 309.66 C-246.38 305.64 -245.84 301.68 -245.56 297.62 C-245.14 292.55 -243.54 287.92 -241.98 283.1 C-240.46 278.3 -239.45 273.45 -238.54 268.51 C-237.69 263.94 -236.66 259.73 -234.92 255.4 C-233.19 250.89 -231.77 246.27 -230.28 241.68 C-229.01 238.04 -227.52 234.55 -226 231 C-225.33 229.01 -224.68 227.01 -224.06 225 C-222.5 220.21 -220.62 216.28 -218 212 C-217.29 210.35 -216.62 208.68 -216 207 C-215.33 205.33 -214.67 203.67 -214 202 C-213.34 202 -212.68 202 -212 202 C-211.92 201.34 -211.83 200.68 -211.75 200 C-210.75 195.99 -208.96 192.59 -207.06 188.94 C-206.7 188.23 -206.34 187.52 -205.97 186.79 C-205.28 185.45 -204.59 184.1 -203.9 182.75 C-202.92 180.84 -201.95 178.92 -201 177 C-200.34 177 -199.68 177 -199 177 C-198.88 176.42 -198.75 175.85 -198.62 175.25 C-197.99 172.98 -197.11 171.07 -196 169 C-195.34 169 -194.68 169 -194 169 C-193.94 168.33 -193.87 167.66 -193.81 166.98 C-192.69 162.86 -190.48 159.85 -188.06 156.38 C-187.61 155.71 -187.15 155.04 -186.68 154.35 C-185.83 153.11 -184.98 151.87 -184.13 150.64 C-183.07 149.1 -182.03 147.55 -181 146 C-180.34 146 -179.68 146 -179 146 C-178.73 145.44 -178.46 144.89 -178.19 144.31 C-175.69 139.45 -172.69 135.07 -169.44 130.69 C-169.04 130.14 -168.64 129.59 -168.23 129.02 C-167.2 127.64 -166.11 126.32 -165 125 C-164.34 125 -163.68 125 -163 125 C-163 124.01 -163 123.02 -163 122 C-162.34 122 -161.68 122 -161 122 C-160.5 120.02 -160.5 120.02 -160 118 C-159.34 118 -158.68 118 -158 118 C-157.77 117.45 -157.55 116.89 -157.32 116.32 C-155.61 113.31 -153.42 111.27 -150.94 108.88 C-147.54 105.76 -147.54 105.76 -145 102 C-144.34 102 -143.68 102 -143 102 C-142.78 101.46 -142.56 100.92 -142.33 100.37 C-140.56 97.21 -138.2 94.7 -135.75 92.06 C-135.28 91.55 -134.82 91.04 -134.34 90.51 C-131.12 87.02 -127.78 83.9 -124 81 C-123.34 81 -122.68 81 -122 81 C-122 80.34 -122 79.68 -122 79 C-120.62 77.38 -120.62 77.38 -119 76 C-118.34 76 -117.68 76 -117 76 C-117 75.34 -117 74.68 -117 74 C-115.53 72.52 -115.53 72.52 -113.5 70.81 C-110.55 68.32 -107.67 65.79 -104.81 63.19 C-102.03 60.74 -99.63 59.02 -96 58 C-96 57.34 -96 56.68 -96 56 C-94.26 54.55 -92.46 53.19 -90.62 51.88 C-89.13 50.79 -89.13 50.79 -87.6 49.68 C-85 48 -85 48 -83 48 C-83 47.34 -83 46.68 -83 46 C-78.62 43 -78.62 43 -76 43 C-76 42.34 -76 41.68 -76 41 C-74.33 39.62 -72.58 38.32 -70.81 37.06 C-69.85 36.37 -68.89 35.68 -67.89 34.97 C-60.6 30 -60.6 30 -57 30 C-57 29.34 -57 28.68 -57 28 C-56.24 27.59 -55.48 27.18 -54.7 26.76 C-53.71 26.22 -52.71 25.68 -51.69 25.12 C-50.7 24.59 -49.72 24.06 -48.7 23.51 C-45.9 21.99 -45.9 21.99 -43 20 C-42.01 20 -41.02 20 -40 20 C-40 19.34 -40 18.68 -40 18 C-32.18 13.77 -24.32 9.61 -16.38 5.62 C-15.38 5.13 -15.38 5.13 -14.37 4.62 C-5.11 0 -5.11 0 0 0 Z " fill="#F2F3F5" transform="translate(485,261)"/>
<path d="M0 0 C62.7 0 125.4 0 190 0 C190 0.33 190 0.66 190 1 C127.3 1 64.6 1 0 1 C0 0.67 0 0.34 0 0 Z " fill="#000002" transform="translate(559,892)"/>
<path d="M0 0 C0.33 0 0.66 0 1 0 C2.16 6.43 2.14 12.76 2.13 19.29 C2.13 20.46 2.13 21.63 2.14 22.84 C2.14 25.32 2.13 27.79 2.13 30.27 C2.13 34.05 2.13 37.84 2.14 41.62 C2.14 44.03 2.13 46.44 2.13 48.85 C2.13 49.98 2.14 51.1 2.14 52.27 C2.12 57.28 2.08 62.07 1 67 C0.67 67 0.34 67 0 67 C0 44.89 0 22.78 0 0 Z " fill="#000002" transform="translate(1048,606)"/>
<path d="M0 0 C0.33 0 0.66 0 1 0 C1 23.76 1 47.52 1 72 C0.67 72 0.34 72 0 72 C0 48.24 0 24.48 0 0 Z " fill="#000002" transform="translate(558,893)"/>
<path d="M0 0 C0 0.33 0 0.66 0 1 C-11.68 2.1 -23.28 2.11 -35 2 C-35 1.67 -35 1.34 -35 1 C-23.31 0.1 -11.72 -0.11 0 0 Z " fill="#000002" transform="translate(634,237)"/>
<path d="M0 0 C12.04 -0.14 23.98 0.26 36 1 C36 1.33 36 1.66 36 2 C23.95 2.11 12.01 2.15 0 1 C0 0.67 0 0.34 0 0 Z " fill="#000002" transform="translate(648,237)"/>
<path d="M0 0 C0.33 0 0.66 0 1 0 C1 9.9 1 19.8 1 30 C-0.98 30 -2.96 30 -5 30 C-5 29.67 -5 29.34 -5 29 C-3.35 29 -1.7 29 0 29 C0 19.43 0 9.86 0 0 Z " fill="#000002" transform="translate(486,974)"/>
<path d="M0 0 C5.61 0 11.22 0 17 0 C16.67 0.66 16.34 1.32 16 2 C13.45 2.45 13.45 2.45 10.25 2.69 C9.2 2.77 8.16 2.86 7.08 2.95 C4.2 3 1.79 2.69 -1 2 C-0.67 1.34 -0.34 0.68 0 0 Z " fill="#000002" transform="translate(560,242)"/>
<path d="M0 0 C0.33 0 0.66 0 1 0 C1.62 10.01 2.18 19.97 2 30 C1.67 30 1.34 30 1 30 C0.12 23.27 -0.12 16.72 -0.06 9.94 C-0.06 8.5 -0.06 8.5 -0.05 7.03 C-0.04 4.68 -0.02 2.34 0 0 Z " fill="#000002" transform="translate(255,633)"/>
<path d="M0 0 C0.33 0 0.66 0 1 0 C1.19 9.7 0.6 19.33 0 29 C-0.33 29 -0.66 29 -1 29 C-1.03 25.85 -1.05 22.71 -1.06 19.56 C-1.08 18.24 -1.08 18.24 -1.09 16.9 C-1.11 11.18 -0.73 5.67 0 0 Z " fill="#000002" transform="translate(256,574)"/>
<path d="M0 0 C0 0.33 0 0.66 0 1 C-4.77 2.23 -9.42 2.11 -14.31 2.06 C-15.15 2.06 -15.98 2.05 -16.85 2.05 C-18.9 2.04 -20.95 2.02 -23 2 C-23 1.67 -23 1.34 -23 1 C-7.26 -0.15 -7.26 -0.15 0 0 Z " fill="#000002" transform="translate(684,1030)"/>
<path d="M0 0 C8.25 0 16.5 0 25 0 C25 0.33 25 0.66 25 1 C16.75 1 8.5 1 0 1 C0 0.67 0 0.34 0 0 Z " fill="#000002" transform="translate(627,1032)"/>
<path d="M0 0 C7.26 0.33 14.52 0.66 22 1 C22 1.33 22 1.66 22 2 C19.27 2.03 16.54 2.05 13.81 2.06 C13.04 2.07 12.27 2.08 11.48 2.09 C7.51 2.1 3.87 1.99 0 1 C0 0.67 0 0.34 0 0 Z " fill="#000002" transform="translate(596,1030)"/>
<path d="M0 0 C0 0.33 0 0.66 0 1 C-3.67 1.85 -7.04 2.11 -10.81 2.06 C-12.28 2.05 -12.28 2.05 -13.77 2.04 C-14.87 2.02 -14.87 2.02 -16 2 C-16 1.67 -16 1.34 -16 1 C-10.65 0.41 -5.39 -0.14 0 0 Z " fill="#000002" transform="translate(707,1028)"/>
<path d="M0 0 C0.33 0 0.66 0 1 0 C2.32 4.96 2.09 9.91 2 15 C1.67 15 1.34 15 1 15 C0.67 10.05 0.34 5.1 0 0 Z " fill="#000002" transform="translate(1046,584)"/>
<path d="M0 0 C0.33 0 0.66 0 1 0 C1 5.28 1 10.56 1 16 C0.67 16 0.34 16 0 16 C0 10.72 0 5.44 0 0 Z " fill="#000002" transform="translate(763,426)"/>
<path d="M0 0 C6.93 0.49 6.93 0.49 14 1 C14 1.33 14 1.66 14 2 C12.42 2.05 10.83 2.09 9.25 2.12 C8.37 2.15 7.49 2.17 6.58 2.2 C4 2 4 2 0 0 Z " fill="#000002" transform="translate(574,1028)"/>
<path d="M0 0 C4.29 0.33 8.58 0.66 13 1 C13 1.33 13 1.66 13 2 C11.58 2.05 10.17 2.09 8.75 2.12 C7.96 2.15 7.17 2.17 6.36 2.2 C4 2 4 2 0 0 Z " fill="#000002" transform="translate(706,242)"/>
<path d="M0 0 C-3.9 2.6 -7.47 2.15 -12 2 C-12 1.67 -12 1.34 -12 1 C-7.96 0.37 -4.09 -0.12 0 0 Z " fill="#000002" transform="translate(588,649)"/>
<path d="M0 0 C2 2 2 2 2.2 4.16 C2.16 5.38 2.16 5.38 2.12 6.62 C2.11 7.44 2.09 8.26 2.07 9.1 C2.05 9.73 2.02 10.35 2 11 C1.67 11 1.34 11 1 11 C0.67 7.37 0.34 3.74 0 0 Z " fill="#000002" transform="translate(1043,565)"/>
<path d="M0 0 C0.33 0 0.66 0 1 0 C1.08 4.16 0.98 7.95 0 12 C-0.33 12 -0.66 12 -1 12 C-0.67 8.04 -0.34 4.08 0 0 Z " fill="#000002" transform="translate(261,541)"/>
<path d="M0 0 C3.96 0.33 7.92 0.66 12 1 C12 1.33 12 1.66 12 2 C10.56 2.05 9.13 2.09 7.69 2.12 C6.89 2.15 6.09 2.17 5.26 2.2 C3 2 3 2 0 0 Z " fill="#000002" transform="translate(576,270)"/>
<path d="M0 0 C4.29 0 8.58 0 13 0 C13 0.33 13 0.66 13 1 C8.71 1 4.42 1 0 1 C0 0.67 0 0.34 0 0 Z " fill="#000002" transform="translate(560,269)"/>
<path d="M0 0 C2.11 4.22 2.18 6.4 2 11 C1.67 11 1.34 11 1 11 C0.67 7.37 0.34 3.74 0 0 Z " fill="#000002" transform="translate(260,685)"/>
<path d="M0 0 C0.33 0 0.66 0 1 0 C1 3.96 1 7.92 1 12 C0.67 12 0.34 12 0 12 C0 8.04 0 4.08 0 0 Z " fill="#000002" transform="translate(1047,678)"/>
<path d="M0 0 C-3.21 1.61 -6.44 1.06 -10 1 C-10 0.67 -10 0.34 -10 0 C-6.34 -0.75 -3.58 -1.24 0 0 Z " fill="#000002" transform="translate(595,240)"/>
<path d="M0 0 C3.96 0 7.92 0 12 0 C12 0.33 12 0.66 12 1 C8.04 1 4.08 1 0 1 C0 0.67 0 0.34 0 0 Z " fill="#000002" transform="translate(635,236)"/>
<path d="M0 0 C-3.21 1.61 -6.44 1.06 -10 1 C-10 0.67 -10 0.34 -10 0 C-3.38 -1.12 -3.38 -1.12 0 0 Z " fill="#000002" transform="translate(724,1026)"/>
<path d="M0 0 C0.33 0 0.66 0 1 0 C1 3.63 1 7.26 1 11 C0.67 11 0.34 11 0 11 C0 7.37 0 3.74 0 0 Z " fill="#000002" transform="translate(763,460)"/>
<path d="M0 0 C2.97 0.33 5.94 0.66 9 1 C9 1.33 9 1.66 9 2 C5.62 2.12 5.62 2.12 2 2 C1.34 1.34 0.68 0.68 0 0 Z " fill="#000002" transform="translate(557,1025)"/>
<path d="M0 0 C2 2 2 2 2.12 5.62 C2.08 6.74 2.04 7.85 2 9 C1.67 9 1.34 9 1 9 C0.67 6.03 0.34 3.06 0 0 Z " fill="#000002" transform="translate(257,666)"/>
<path d="M0 0 C0.33 0 0.66 0 1 0 C1.12 3.38 1.12 3.38 1 7 C0.34 7.66 -0.32 8.32 -1 9 C-0.67 6.03 -0.34 3.06 0 0 Z " fill="#000002" transform="translate(258,562)"/>
<path d="M0 0 C0.33 0 0.66 0 1 0 C1 2.97 1 5.94 1 9 C0.67 9 0.34 9 0 9 C0 6.03 0 3.06 0 0 Z " fill="#000002" transform="translate(760,482)"/>
<path d="M0 0 C0.33 0 0.66 0 1 0 C1 2.64 1 5.28 1 8 C0.67 8 0.34 8 0 8 C0 5.36 0 2.72 0 0 Z " fill="#000002" transform="translate(486,261)"/>
<path d="M0 0 C2.31 0.33 4.62 0.66 7 1 C7 1.33 7 1.66 7 2 C4.69 1.67 2.38 1.34 0 1 C0 0.67 0 0.34 0 0 Z " fill="#000002" transform="translate(732,247)"/>
<path d="M0 0 C2.64 0 5.28 0 8 0 C8 0.33 8 0.66 8 1 C5.36 1 2.72 1 0 1 C0 0.67 0 0.34 0 0 Z " fill="#000002" transform="translate(689,240)"/>
<path d="M0 0 C2.97 0.5 2.97 0.5 6 1 C6 1.33 6 1.66 6 2 C4.35 2 2.7 2 1 2 C0.67 1.34 0.34 0.68 0 0 Z " fill="#000002" transform="translate(535,1020)"/>
<path d="M0 0 C0.33 0 0.66 0 1 0 C1 2.31 1 4.62 1 7 C0.67 7 0.34 7 0 7 C0 4.69 0 2.38 0 0 Z " fill="#000002" transform="translate(254,626)"/>
<path d="M0 0 C0.33 0 0.66 0 1 0 C1 2.31 1 4.62 1 7 C0.67 7 0.34 7 0 7 C0 4.69 0 2.38 0 0 Z " fill="#000002" transform="translate(254,603)"/>
<path d="M0 0 C0.33 0 0.66 0 1 0 C1 2.31 1 4.62 1 7 C0.67 7 0.34 7 0 7 C0 4.69 0 2.38 0 0 Z " fill="#000002" transform="translate(762,419)"/>
<path d="M0 0 C0.33 0 0.66 0 1 0 C1 2.31 1 4.62 1 7 C0.67 7 0.34 7 0 7 C0 4.69 0 2.38 0 0 Z " fill="#000002" transform="translate(760,407)"/>
<path d="M0 0 C2.97 0.5 2.97 0.5 6 1 C4.12 1.62 4.12 1.62 2 2 C1.34 1.34 0.68 0.68 0 0 Z " fill="#000002" transform="translate(601,275)"/>
<path d="M0 0 C2.97 0.5 2.97 0.5 6 1 C4.12 1.62 4.12 1.62 2 2 C1.34 1.34 0.68 0.68 0 0 Z " fill="#000002" transform="translate(774,260)"/>
<path d="M0 0 C1.98 0 3.96 0 6 0 C6 0.33 6 0.66 6 1 C4.02 1 2.04 1 0 1 C0 0.67 0 0.34 0 0 Z " fill="#000002" transform="translate(738,1021)"/>
<path d="M0 0 C2.48 0.5 2.48 0.5 5 1 C3.68 1.33 2.36 1.66 1 2 C0.67 1.34 0.34 0.68 0 0 Z " fill="#000002" transform="translate(537,961)"/>
<path d="M0 0 C0.33 0 0.66 0 1 0 C1 1.98 1 3.96 1 6 C0.67 6 0.34 6 0 6 C0 4.02 0 2.04 0 0 Z " fill="#000002" transform="translate(1042,711)"/>
<path d="M0 0 C1.98 0 3.96 0 6 0 C6 0.33 6 0.66 6 1 C4.02 1 2.04 1 0 1 C0 0.67 0 0.34 0 0 Z " fill="#000002" transform="translate(602,645)"/>
<path d="M0 0 C0.33 0 0.66 0 1 0 C1 1.98 1 3.96 1 6 C0.67 6 0.34 6 0 6 C0 4.02 0 2.04 0 0 Z " fill="#000002" transform="translate(1042,556)"/>
<path d="M0 0 C0.33 0 0.66 0 1 0 C1 1.98 1 3.96 1 6 C0.67 6 0.34 6 0 6 C0 4.02 0 2.04 0 0 Z " fill="#000002" transform="translate(1039,543)"/>
<path d="M0 0 C0.33 0 0.66 0 1 0 C1 1.98 1 3.96 1 6 C0.67 6 0.34 6 0 6 C0 4.02 0 2.04 0 0 Z " fill="#000002" transform="translate(755,388)"/>
<path d="M0 0 C1.65 0 3.3 0 5 0 C5 0.33 5 0.66 5 1 C3.35 1 1.7 1 0 1 C0 0.67 0 0.34 0 0 Z " fill="#000002" transform="translate(727,1024)"/>
<path d="M0 0 C1.65 0 3.3 0 5 0 C5 0.33 5 0.66 5 1 C3.35 1 1.7 1 0 1 C0 0.67 0 0.34 0 0 Z " fill="#000002" transform="translate(548,1024)"/>
<path d="M0 0 C1.65 0 3.3 0 5 0 C5 0.33 5 0.66 5 1 C3.35 1 1.7 1 0 1 C0 0.67 0 0.34 0 0 Z " fill="#000002" transform="translate(758,1016)"/>
<path d="M0 0 C1.65 0 3.3 0 5 0 C5 0.33 5 0.66 5 1 C3.35 1 1.7 1 0 1 C0 0.67 0 0.34 0 0 Z " fill="#000002" transform="translate(550,965)"/>
<path d="M0 0 C0.33 0 0.66 0 1 0 C1 1.65 1 3.3 1 5 C0.67 5 0.34 5 0 5 C0 3.35 0 1.7 0 0 Z " fill="#000002" transform="translate(1039,725)"/>
<path d="M0 0 C0.33 0 0.66 0 1 0 C1 1.65 1 3.3 1 5 C0.67 5 0.34 5 0 5 C0 3.35 0 1.7 0 0 Z " fill="#000002" transform="translate(266,711)"/>
<path d="M0 0 C0.33 0 0.66 0 1 0 C1 1.65 1 3.3 1 5 C0.67 5 0.34 5 0 5 C0 3.35 0 1.7 0 0 Z " fill="#000002" transform="translate(266,521)"/>
<path d="M0 0 C0.33 0 0.66 0 1 0 C1 1.65 1 3.3 1 5 C0.67 5 0.34 5 0 5 C0 3.35 0 1.7 0 0 Z " fill="#000002" transform="translate(762,473)"/>
<path d="M0 0 C1.65 0 3.3 0 5 0 C5 0.33 5 0.66 5 1 C3.35 1 1.7 1 0 1 C0 0.67 0 0.34 0 0 Z " fill="#000002" transform="translate(722,245)"/>
<path d="M0 0 C4 1 4 1 4 1 Z " fill="#000002" transform="translate(747,1019)"/>
<path d="M0 0 C4 1 4 1 4 1 Z " fill="#000002" transform="translate(774,1011)"/>
<path d="M0 0 C4 1 4 1 4 1 Z " fill="#000002" transform="translate(531,960)"/>
<path d="M0 0 C1 4 1 4 1 4 Z " fill="#000002" transform="translate(284,766)"/>
<path d="M0 0 C1 4 1 4 1 4 Z " fill="#000002" transform="translate(279,753)"/>
<path d="M0 0 C1 4 1 4 1 4 Z " fill="#000002" transform="translate(1034,743)"/>
<path d="M0 0 C1 4 1 4 1 4 Z " fill="#000002" transform="translate(1046,690)"/>
<path d="M0 0 C4 1 4 1 4 1 Z " fill="#000002" transform="translate(638,632)"/>
<path d="M0 0 C1 4 1 4 1 4 Z " fill="#000002" transform="translate(1041,552)"/>
<path d="M0 0 C1 4 1 4 1 4 Z " fill="#000002" transform="translate(1037,536)"/>
<path d="M0 0 C1 4 1 4 1 4 Z " fill="#000002" transform="translate(1036,531)"/>
<path d="M0 0 C1 4 1 4 1 4 Z " fill="#000002" transform="translate(1034,523)"/>
<path d="M0 0 C1 4 1 4 1 4 Z " fill="#000002" transform="translate(755,505)"/>
<path d="M0 0 C1 4 1 4 1 4 Z " fill="#000002" transform="translate(271,503)"/>
<path d="M0 0 C4 1 4 1 4 1 Z " fill="#000002" transform="translate(592,273)"/>
<path d="M0 0 C4 1 4 1 4 1 Z " fill="#000002" transform="translate(782,263)"/>
<path d="M0 0 C4 1 4 1 4 1 Z " fill="#000002" transform="translate(743,250)"/>
<path d="M0 0 C3 1 3 1 3 1 Z " fill="#000002" transform="translate(732,1023)"/>
<path d="M0 0 C3 1 3 1 3 1 Z " fill="#000002" transform="translate(545,1023)"/>
<path d="M0 0 C3 1 3 1 3 1 Z " fill="#000002" transform="translate(530,1019)"/>
<path d="M0 0 C3 1 3 1 3 1 Z " fill="#000002" transform="translate(752,1018)"/>
<path d="M0 0 C3 1 3 1 3 1 Z " fill="#000002" transform="translate(526,1018)"/>
<path d="M0 0 C3 1 3 1 3 1 Z " fill="#000002" transform="translate(817,993)"/>
<path d="M0 0 C3 1 3 1 3 1 Z " fill="#000002" transform="translate(827,988)"/>
<path d="M0 0 C3 1 3 1 3 1 Z " fill="#000002" transform="translate(547,964)"/>
<path d="M0 0 C0.66 0.66 1.32 1.32 2 2 C1.34 2 0.68 2 0 2 C0 1.34 0 0.68 0 0 Z " fill="#000002" transform="translate(790,898)"/>
<path d="" fill="#000002" transform="translate(0,0)"/>
<path d="" fill="#000002" transform="translate(0,0)"/>
<path d="" fill="#000002" transform="translate(0,0)"/>
<path d="" fill="#000002" transform="translate(0,0)"/>
<path d="" fill="#000002" transform="translate(0,0)"/>
<path d="" fill="#000002" transform="translate(0,0)"/>
<path d="" fill="#000002" transform="translate(0,0)"/>
<path d="" fill="#000002" transform="translate(0,0)"/>
<path d="" fill="#000002" transform="translate(0,0)"/>
<path d="" fill="#000002" transform="translate(0,0)"/>
<path d="" fill="#000002" transform="translate(0,0)"/>
<path d="" fill="#000002" transform="translate(0,0)"/>
<path d="M0 0 C3 1 3 1 3 1 Z " fill="#000002" transform="translate(597,647)"/>
<path d="M0 0 C3 1 3 1 3 1 Z " fill="#000002" transform="translate(615,642)"/>
<path d="M0 0 C3 1 3 1 3 1 Z " fill="#000002" transform="translate(620,640)"/>
<path d="" fill="#000002" transform="translate(0,0)"/>
<path d="" fill="#000002" transform="translate(0,0)"/>
<path d="" fill="#000002" transform="translate(0,0)"/>
<path d="" fill="#000002" transform="translate(0,0)"/>
<path d="" fill="#000002" transform="translate(0,0)"/>
<path d="" fill="#000002" transform="translate(0,0)"/>
<path d="" fill="#000002" transform="translate(0,0)"/>
<path d="" fill="#000002" transform="translate(0,0)"/>
<path d="" fill="#000002" transform="translate(0,0)"/>
<path d="" fill="#000002" transform="translate(0,0)"/>
<path d="" fill="#000002" transform="translate(0,0)"/>
<path d="" fill="#000002" transform="translate(0,0)"/>
<path d="" fill="#000002" transform="translate(0,0)"/>
<path d="" fill="#000002" transform="translate(0,0)"/>
<path d="" fill="#000002" transform="translate(0,0)"/>
<path d="" fill="#000002" transform="translate(0,0)"/>
<path d="" fill="#000002" transform="translate(0,0)"/>
<path d="" fill="#000002" transform="translate(0,0)"/>
<path d="" fill="#000002" transform="translate(0,0)"/>
<path d="M0 0 C3 1 3 1 3 1 Z " fill="#000002" transform="translate(618,281)"/>
<path d="M0 0 C3 1 3 1 3 1 Z " fill="#000002" transform="translate(612,279)"/>
<path d="M0 0 C3 1 3 1 3 1 Z " fill="#000002" transform="translate(596,274)"/>
<path d="M0 0 C3 1 3 1 3 1 Z " fill="#000002" transform="translate(800,271)"/>
<path d="M0 0 C3 1 3 1 3 1 Z " fill="#000002" transform="translate(790,266)"/>
<path d="M0 0 C3 1 3 1 3 1 Z " fill="#000002" transform="translate(768,258)"/>
<path d="M0 0 C3 1 3 1 3 1 Z " fill="#000002" transform="translate(762,256)"/>
<path d="M0 0 C3 1 3 1 3 1 Z " fill="#000002" transform="translate(753,253)"/>
<path d="M0 0 C3 1 3 1 3 1 Z " fill="#000002" transform="translate(747,251)"/>
<path d="M0 0 C3 1 3 1 3 1 Z " fill="#000002" transform="translate(686,239)"/>
<path d="M0 0 C2 1 2 1 2 1 Z " fill="#000002" transform="translate(744,1020)"/>
<path d="M0 0 C2 1 2 1 2 1 Z " fill="#000002" transform="translate(763,1015)"/>
<path d="M0 0 C2 1 2 1 2 1 Z " fill="#000002" transform="translate(770,1013)"/>
<path d="M0 0 C2 1 2 1 2 1 Z " fill="#000002" transform="translate(784,1008)"/>
<path d="M0 0 C2 1 2 1 2 1 Z " fill="#000002" transform="translate(789,1006)"/>
<path d="M0 0 C2 1 2 1 2 1 Z " fill="#000002" transform="translate(797,1003)"/>
<path d="M0 0 C2 1 2 1 2 1 Z " fill="#000002" transform="translate(802,1001)"/>
<path d="M0 0 C2 1 2 1 2 1 Z " fill="#000002" transform="translate(808,998)"/>
<path d="M0 0 C2 1 2 1 2 1 Z " fill="#000002" transform="translate(470,998)"/>
<path d="M0 0 C2 1 2 1 2 1 Z " fill="#000002" transform="translate(849,993)"/>
<path d="M0 0 C2 1 2 1 2 1 Z " fill="#000002" transform="translate(858,988)"/>
<path d="M0 0 C2 1 2 1 2 1 Z " fill="#000002" transform="translate(831,987)"/>
<path d="M0 0 C2 1 2 1 2 1 Z " fill="#000002" transform="translate(433,978)"/>
<path d="" fill="#000002" transform="translate(0,0)"/>
<path d="M0 0 C2 1 2 1 2 1 Z " fill="#000002" transform="translate(866,965)"/>
<path d="M0 0 C2 1 2 1 2 1 Z " fill="#000002" transform="translate(529,959)"/>
<path d="M0 0 C2 1 2 1 2 1 Z " fill="#000002" transform="translate(877,957)"/>
<path d="M0 0 C2 1 2 1 2 1 Z " fill="#000002" transform="translate(797,939)"/>
<path d="M0 0 C2 1 2 1 2 1 Z " fill="#000002" transform="translate(801,937)"/>
<path d="M0 0 C2 1 2 1 2 1 Z " fill="#7B7C7E" transform="translate(357,919)"/>
<path d="" fill="#000002" transform="translate(0,0)"/>
<path d="" fill="#000002" transform="translate(0,0)"/>
<path d="" fill="#000002" transform="translate(0,0)"/>
<path d="" fill="#000002" transform="translate(0,0)"/>
<path d="" fill="#000002" transform="translate(0,0)"/>
<path d="" fill="#000002" transform="translate(0,0)"/>
<path d="" fill="#000002" transform="translate(0,0)"/>
<path d="" fill="#000002" transform="translate(0,0)"/>
<path d="" fill="#000002" transform="translate(0,0)"/>
<path d="" fill="#000002" transform="translate(0,0)"/>
<path d="" fill="#000002" transform="translate(0,0)"/>
<path d="" fill="#000002" transform="translate(0,0)"/>
<path d="" fill="#000002" transform="translate(0,0)"/>
<path d="" fill="#000002" transform="translate(0,0)"/>
<path d="" fill="#000002" transform="translate(0,0)"/>
<path d="" fill="#000002" transform="translate(0,0)"/>
<path d="" fill="#000002" transform="translate(0,0)"/>
<path d="" fill="#000002" transform="translate(0,0)"/>
<path d="" fill="#000002" transform="translate(0,0)"/>
<path d="" fill="#7B7C7E" transform="translate(0,0)"/>
<path d="M0 0 C2 1 2 1 2 1 Z " fill="#000002" transform="translate(608,644)"/>
<path d="M0 0 C2 1 2 1 2 1 Z " fill="#000002" transform="translate(624,639)"/>
<path d="M0 0 C2 1 2 1 2 1 Z " fill="#000002" transform="translate(629,637)"/>
<path d="M0 0 C2 1 2 1 2 1 Z " fill="#000002" transform="translate(633,635)"/>
<path d="M0 0 C2 1 2 1 2 1 Z " fill="#000002" transform="translate(658,622)"/>
<path d="M0 0 C2 1 2 1 2 1 Z " fill="#000002" transform="translate(677,609)"/>
<path d="" fill="#000002" transform="translate(0,0)"/>
<path d="" fill="#000002" transform="translate(0,0)"/>
<path d="" fill="#000002" transform="translate(0,0)"/>
<path d="" fill="#000002" transform="translate(0,0)"/>
<path d="" fill="#000002" transform="translate(0,0)"/>
<path d="" fill="#000002" transform="translate(0,0)"/>
<path d="" fill="#000002" transform="translate(0,0)"/>
<path d="" fill="#000002" transform="translate(0,0)"/>
<path d="" fill="#000002" transform="translate(0,0)"/>
<path d="" fill="#000002" transform="translate(0,0)"/>
<path d="" fill="#000002" transform="translate(0,0)"/>
<path d="" fill="#000002" transform="translate(0,0)"/>
<path d="" fill="#000002" transform="translate(0,0)"/>
<path d="" fill="#000002" transform="translate(0,0)"/>
<path d="" fill="#000002" transform="translate(0,0)"/>
<path d="" fill="#000002" transform="translate(0,0)"/>
<path d="" fill="#000002" transform="translate(0,0)"/>
<path d="" fill="#000002" transform="translate(0,0)"/>
<path d="" fill="#000002" transform="translate(0,0)"/>
<path d="" fill="#000002" transform="translate(0,0)"/>
<path d="" fill="#000002" transform="translate(0,0)"/>
<path d="" fill="#000002" transform="translate(0,0)"/>
<path d="" fill="#000002" transform="translate(0,0)"/>
<path d="" fill="#000002" transform="translate(0,0)"/>
<path d="" fill="#000002" transform="translate(0,0)"/>
<path d="" fill="#000002" transform="translate(0,0)"/>
<path d="" fill="#000002" transform="translate(0,0)"/>
<path d="" fill="#000002" transform="translate(0,0)"/>
<path d="" fill="#000002" transform="translate(0,0)"/>
<path d="" fill="#000002" transform="translate(0,0)"/>
<path d="" fill="#000002" transform="translate(0,0)"/>
<path d="" fill="#000002" transform="translate(0,0)"/>
<path d="" fill="#000002" transform="translate(0,0)"/>
<path d="M0 0 C2 1 2 1 2 1 Z " fill="#000002" transform="translate(851,299)"/>
<path d="M0 0 C2 1 2 1 2 1 Z " fill="#000002" transform="translate(840,292)"/>
<path d="M0 0 C2 1 2 1 2 1 Z " fill="#000002" transform="translate(635,289)"/>
<path d="M0 0 C2 1 2 1 2 1 Z " fill="#000002" transform="translate(444,289)"/>
<path d="M0 0 C2 1 2 1 2 1 Z " fill="#000002" transform="translate(826,284)"/>
<path d="M0 0 C2 1 2 1 2 1 Z " fill="#000002" transform="translate(625,284)"/>
<path d="M0 0 C2 1 2 1 2 1 Z " fill="#000002" transform="translate(821,281)"/>
<path d="M0 0 C2 1 2 1 2 1 Z " fill="#000002" transform="translate(458,281)"/>
<path d="M0 0 C2 1 2 1 2 1 Z " fill="#000002" transform="translate(462,279)"/>
<path d="M0 0 C2 1 2 1 2 1 Z " fill="#000002" transform="translate(610,278)"/>
<path d="M0 0 C2 1 2 1 2 1 Z " fill="#000002" transform="translate(811,276)"/>
<path d="M0 0 C2 1 2 1 2 1 Z " fill="#000002" transform="translate(469,276)"/>
<path d="M0 0 C2 1 2 1 2 1 Z " fill="#000002" transform="translate(473,274)"/>
<path d="M0 0 C2 1 2 1 2 1 Z " fill="#000002" transform="translate(805,273)"/>
<path d="M0 0 C2 1 2 1 2 1 Z " fill="#000002" transform="translate(475,273)"/>
<path d="M0 0 C2 1 2 1 2 1 Z " fill="#000002" transform="translate(479,271)"/>
<path d="M0 0 C2 1 2 1 2 1 Z " fill="#000002" transform="translate(794,268)"/>
<path d="M0 0 C2 1 2 1 2 1 Z " fill="#000002" transform="translate(760,255)"/>
<path d="M0 0 C2 1 2 1 2 1 Z " fill="#000002" transform="translate(728,246)"/>
<path d="" fill="#000002" transform="translate(0,0)"/>
<path d="" fill="#000002" transform="translate(0,0)"/>
<path d="" fill="#000002" transform="translate(0,0)"/>
<path d="" fill="#000002" transform="translate(0,0)"/>
<path d="" fill="#000002" transform="translate(0,0)"/>
<path d="" fill="#000002" transform="translate(0,0)"/>
<path d="" fill="#000002" transform="translate(0,0)"/>
<path d="" fill="#000002" transform="translate(0,0)"/>
<path d="" fill="#000002" transform="translate(0,0)"/>
<path d="" fill="#000002" transform="translate(0,0)"/>
<path d="" fill="#000002" transform="translate(0,0)"/>
<path d="" fill="#000002" transform="translate(0,0)"/>
<path d="" fill="#000002" transform="translate(0,0)"/>
<path d="" fill="#000002" transform="translate(0,0)"/>
<path d="" fill="#000002" transform="translate(0,0)"/>
<path d="" fill="#000002" transform="translate(0,0)"/>
<path d="" fill="#000002" transform="translate(0,0)"/>
<path d="" fill="#000002" transform="translate(0,0)"/>
<path d="" fill="#000002" transform="translate(0,0)"/>
<path d="" fill="#000002" transform="translate(0,0)"/>
<path d="" fill="#000002" transform="translate(0,0)"/>
<path d="" fill="#000002" transform="translate(0,0)"/>
<path d="" fill="#000002" transform="translate(0,0)"/>
<path d="" fill="#000002" transform="translate(0,0)"/>
<path d="" fill="#000002" transform="translate(0,0)"/>
<path d="" fill="#000002" transform="translate(0,0)"/>
<path d="" fill="#000002" transform="translate(0,0)"/>
<path d="" fill="#000002" transform="translate(0,0)"/>
<path d="" fill="#000002" transform="translate(0,0)"/>
<path d="" fill="#000002" transform="translate(0,0)"/>
<path d="" fill="#000002" transform="translate(0,0)"/>
<path d="" fill="#000002" transform="translate(0,0)"/>
<path d="" fill="#000002" transform="translate(0,0)"/>
<path d="" fill="#000002" transform="translate(0,0)"/>
<path d="" fill="#000002" transform="translate(0,0)"/>
<path d="" fill="#000002" transform="translate(0,0)"/>
<path d="" fill="#000002" transform="translate(0,0)"/>
<path d="" fill="#000002" transform="translate(0,0)"/>
<path d="" fill="#000002" transform="translate(0,0)"/>
<path d="" fill="#000002" transform="translate(0,0)"/>
<path d="" fill="#000002" transform="translate(0,0)"/>
<path d="" fill="#000002" transform="translate(0,0)"/>
<path d="" fill="#000002" transform="translate(0,0)"/>
<path d="" fill="#000002" transform="translate(0,0)"/>
<path d="" fill="#000002" transform="translate(0,0)"/>
<path d="" fill="#000002" transform="translate(0,0)"/>
<path d="" fill="#000002" transform="translate(0,0)"/>
<path d="" fill="#000002" transform="translate(0,0)"/>
<path d="" fill="#000002" transform="translate(0,0)"/>
<path d="" fill="#000002" transform="translate(0,0)"/>
<path d="" fill="#000002" transform="translate(0,0)"/>
<path d="" fill="#000002" transform="translate(0,0)"/>
<path d="" fill="#000002" transform="translate(0,0)"/>
<path d="" fill="#000002" transform="translate(0,0)"/>
<path d="" fill="#000002" transform="translate(0,0)"/>
<path d="" fill="#000002" transform="translate(0,0)"/>
<path d="" fill="#000002" transform="translate(0,0)"/>
<path d="" fill="#000002" transform="translate(0,0)"/>
<path d="" fill="#000002" transform="translate(0,0)"/>
<path d="" fill="#000002" transform="translate(0,0)"/>
<path d="" fill="#000002" transform="translate(0,0)"/>
<path d="" fill="#000002" transform="translate(0,0)"/>
<path d="" fill="#000002" transform="translate(0,0)"/>
<path d="" fill="#000002" transform="translate(0,0)"/>
<path d="" fill="#000002" transform="translate(0,0)"/>
<path d="" fill="#000002" transform="translate(0,0)"/>
<path d="" fill="#000002" transform="translate(0,0)"/>
<path d="" fill="#000002" transform="translate(0,0)"/>
<path d="" fill="#000002" transform="translate(0,0)"/>
<path d="" fill="#000002" transform="translate(0,0)"/>
<path d="" fill="#000002" transform="translate(0,0)"/>
<path d="" fill="#000002" transform="translate(0,0)"/>
<path d="" fill="#000002" transform="translate(0,0)"/>
<path d="" fill="#000002" transform="translate(0,0)"/>
<path d="" fill="#000002" transform="translate(0,0)"/>
<path d="" fill="#000002" transform="translate(0,0)"/>
<path d="" fill="#000002" transform="translate(0,0)"/>
<path d="" fill="#000002" transform="translate(0,0)"/>
<path d="" fill="#000002" transform="translate(0,0)"/>
<path d="" fill="#000002" transform="translate(0,0)"/>
<path d="" fill="#000002" transform="translate(0,0)"/>
<path d="" fill="#000002" transform="translate(0,0)"/>
<path d="" fill="#000002" transform="translate(0,0)"/>
<path d="" fill="#000002" transform="translate(0,0)"/>
<path d="" fill="#000002" transform="translate(0,0)"/>
<path d="" fill="#000002" transform="translate(0,0)"/>
<path d="" fill="#000002" transform="translate(0,0)"/>
<path d="" fill="#000002" transform="translate(0,0)"/>
<path d="" fill="#000002" transform="translate(0,0)"/>
<path d="" fill="#000002" transform="translate(0,0)"/>
<path d="" fill="#000002" transform="translate(0,0)"/>
<path d="" fill="#000002" transform="translate(0,0)"/>
<path d="" fill="#000002" transform="translate(0,0)"/>
<path d="" fill="#000002" transform="translate(0,0)"/>
<path d="" fill="#000002" transform="translate(0,0)"/>
<path d="" fill="#000002" transform="translate(0,0)"/>
<path d="" fill="#000002" transform="translate(0,0)"/>
<path d="" fill="#000002" transform="translate(0,0)"/>
<path d="" fill="#000002" transform="translate(0,0)"/>
<path d="" fill="#000002" transform="translate(0,0)"/>
<path d="" fill="#000002" transform="translate(0,0)"/>
<path d="" fill="#000002" transform="translate(0,0)"/>
<path d="" fill="#000002" transform="translate(0,0)"/>
<path d="" fill="#000002" transform="translate(0,0)"/>
<path d="" fill="#000002" transform="translate(0,0)"/>
<path d="" fill="#000002" transform="translate(0,0)"/>
<path d="" fill="#000002" transform="translate(0,0)"/>
<path d="" fill="#000002" transform="translate(0,0)"/>
<path d="" fill="#000002" transform="translate(0,0)"/>
<path d="" fill="#000002" transform="translate(0,0)"/>
<path d="" fill="#000002" transform="translate(0,0)"/>
<path d="" fill="#000002" transform="translate(0,0)"/>
<path d="" fill="#000002" transform="translate(0,0)"/>
<path d="" fill="#000002" transform="translate(0,0)"/>
<path d="" fill="#000002" transform="translate(0,0)"/>
<path d="" fill="#000002" transform="translate(0,0)"/>
<path d="" fill="#000002" transform="translate(0,0)"/>
<path d="" fill="#000002" transform="translate(0,0)"/>
<path d="" fill="#000002" transform="translate(0,0)"/>
<path d="" fill="#000002" transform="translate(0,0)"/>
<path d="" fill="#000002" transform="translate(0,0)"/>
<path d="" fill="#000002" transform="translate(0,0)"/>
<path d="" fill="#F7F8FA" transform="translate(0,0)"/>
<path d="" fill="#000002" transform="translate(0,0)"/>
<path d="" fill="#000002" transform="translate(0,0)"/>
<path d="" fill="#000002" transform="translate(0,0)"/>
<path d="" fill="#000002" transform="translate(0,0)"/>
<path d="" fill="#000002" transform="translate(0,0)"/>
<path d="" fill="#000002" transform="translate(0,0)"/>
<path d="" fill="#000002" transform="translate(0,0)"/>
<path d="" fill="#000002" transform="translate(0,0)"/>
<path d="" fill="#000002" transform="translate(0,0)"/>
<path d="" fill="#000002" transform="translate(0,0)"/>
<path d="" fill="#000002" transform="translate(0,0)"/>
<path d="" fill="#000002" transform="translate(0,0)"/>
<path d="" fill="#000002" transform="translate(0,0)"/>
<path d="" fill="#000002" transform="translate(0,0)"/>
<path d="" fill="#000002" transform="translate(0,0)"/>
<path d="" fill="#000002" transform="translate(0,0)"/>
<path d="" fill="#000002" transform="translate(0,0)"/>
<path d="" fill="#000002" transform="translate(0,0)"/>
<path d="" fill="#F7F8FA" transform="translate(0,0)"/>
<path d="" fill="#000002" transform="translate(0,0)"/>
<path d="" fill="#000002" transform="translate(0,0)"/>
<path d="" fill="#000002" transform="translate(0,0)"/>
<path d="" fill="#000002" transform="translate(0,0)"/>
<path d="" fill="#000002" transform="translate(0,0)"/>
<path d="" fill="#000002" transform="translate(0,0)"/>
<path d="" fill="#000002" transform="translate(0,0)"/>
<path d="" fill="#000002" transform="translate(0,0)"/>
<path d="" fill="#000002" transform="translate(0,0)"/>
<path d="" fill="#000002" transform="translate(0,0)"/>
<path d="" fill="#000002" transform="translate(0,0)"/>
<path d="" fill="#000002" transform="translate(0,0)"/>
<path d="" fill="#000002" transform="translate(0,0)"/>
<path d="" fill="#000002" transform="translate(0,0)"/>
<path d="" fill="#000002" transform="translate(0,0)"/>
<path d="" fill="#000002" transform="translate(0,0)"/>
<path d="" fill="#000002" transform="translate(0,0)"/>
<path d="" fill="#000002" transform="translate(0,0)"/>
<path d="" fill="#000002" transform="translate(0,0)"/>
<path d="" fill="#000002" transform="translate(0,0)"/>
<path d="" fill="#000002" transform="translate(0,0)"/>
<path d="" fill="#000002" transform="translate(0,0)"/>
<path d="" fill="#000002" transform="translate(0,0)"/>
<path d="" fill="#000002" transform="translate(0,0)"/>
<path d="" fill="#000002" transform="translate(0,0)"/>
<path d="" fill="#000002" transform="translate(0,0)"/>
<path d="" fill="#000002" transform="translate(0,0)"/>
<path d="" fill="#000002" transform="translate(0,0)"/>
<path d="" fill="#000002" transform="translate(0,0)"/>
<path d="" fill="#000002" transform="translate(0,0)"/>
<path d="" fill="#000002" transform="translate(0,0)"/>
<path d="" fill="#000002" transform="translate(0,0)"/>
<path d="" fill="#000002" transform="translate(0,0)"/>
<path d="" fill="#000002" transform="translate(0,0)"/>
<path d="" fill="#000002" transform="translate(0,0)"/>
<path d="" fill="#000002" transform="translate(0,0)"/>
<path d="" fill="#000002" transform="translate(0,0)"/>
<path d="" fill="#000002" transform="translate(0,0)"/>
<path d="" fill="#000002" transform="translate(0,0)"/>
<path d="" fill="#000002" transform="translate(0,0)"/>
<path d="" fill="#000002" transform="translate(0,0)"/>
<path d="" fill="#000002" transform="translate(0,0)"/>
<path d="" fill="#000002" transform="translate(0,0)"/>
<path d="" fill="#000002" transform="translate(0,0)"/>
<path d="" fill="#000002" transform="translate(0,0)"/>
<path d="" fill="#000002" transform="translate(0,0)"/>
<path d="" fill="#000002" transform="translate(0,0)"/>
<path d="" fill="#000002" transform="translate(0,0)"/>
<path d="" fill="#000002" transform="translate(0,0)"/>
<path d="" fill="#000002" transform="translate(0,0)"/>
<path d="" fill="#000002" transform="translate(0,0)"/>
<path d="" fill="#000002" transform="translate(0,0)"/>
<path d="" fill="#000002" transform="translate(0,0)"/>
<path d="" fill="#000002" transform="translate(0,0)"/>
<path d="" fill="#000002" transform="translate(0,0)"/>
<path d="" fill="#000002" transform="translate(0,0)"/>
<path d="" fill="#000002" transform="translate(0,0)"/>
<path d="" fill="#000002" transform="translate(0,0)"/>
<path d="" fill="#000002" transform="translate(0,0)"/>
<path d="" fill="#000002" transform="translate(0,0)"/>
<path d="" fill="#000002" transform="translate(0,0)"/>
<path d="" fill="#000002" transform="translate(0,0)"/>
<path d="" fill="#000002" transform="translate(0,0)"/>
<path d="" fill="#000002" transform="translate(0,0)"/>
<path d="" fill="#000002" transform="translate(0,0)"/>
<path d="" fill="#000002" transform="translate(0,0)"/>
<path d="" fill="#000002" transform="translate(0,0)"/>
<path d="" fill="#000002" transform="translate(0,0)"/>
<path d="" fill="#000002" transform="translate(0,0)"/>
<path d="" fill="#000002" transform="translate(0,0)"/>
<path d="" fill="#000002" transform="translate(0,0)"/>
<path d="" fill="#000002" transform="translate(0,0)"/>
<path d="" fill="#000002" transform="translate(0,0)"/>
<path d="" fill="#000002" transform="translate(0,0)"/>
<path d="" fill="#000002" transform="translate(0,0)"/>
<path d="" fill="#000002" transform="translate(0,0)"/>
<path d="" fill="#000002" transform="translate(0,0)"/>
<path d="" fill="#000002" transform="translate(0,0)"/>
<path d="" fill="#000002" transform="translate(0,0)"/>
<path d="" fill="#000002" transform="translate(0,0)"/>
<path d="" fill="#000002" transform="translate(0,0)"/>
<path d="" fill="#000002" transform="translate(0,0)"/>
<path d="" fill="#000002" transform="translate(0,0)"/>
<path d="" fill="#000002" transform="translate(0,0)"/>
<path d="" fill="#000002" transform="translate(0,0)"/>
<path d="" fill="#000002" transform="translate(0,0)"/>
<path d="" fill="#000002" transform="translate(0,0)"/>
<path d="" fill="#000002" transform="translate(0,0)"/>
<path d="" fill="#000002" transform="translate(0,0)"/>
<path d="" fill="#000002" transform="translate(0,0)"/>
<path d="" fill="#000002" transform="translate(0,0)"/>
<path d="" fill="#000002" transform="translate(0,0)"/>
<path d="" fill="#000002" transform="translate(0,0)"/>
<path d="" fill="#000002" transform="translate(0,0)"/>
<path d="" fill="#000002" transform="translate(0,0)"/>
<path d="" fill="#000002" transform="translate(0,0)"/>
<path d="" fill="#000002" transform="translate(0,0)"/>
<path d="" fill="#000002" transform="translate(0,0)"/>
<path d="" fill="#000002" transform="translate(0,0)"/>
<path d="" fill="#000002" transform="translate(0,0)"/>
<path d="" fill="#000002" transform="translate(0,0)"/>
<path d="" fill="#000002" transform="translate(0,0)"/>
<path d="" fill="#000002" transform="translate(0,0)"/>
<path d="" fill="#000002" transform="translate(0,0)"/>
<path d="" fill="#000002" transform="translate(0,0)"/>
<path d="" fill="#000002" transform="translate(0,0)"/>
<path d="" fill="#000002" transform="translate(0,0)"/>
<path d="" fill="#000002" transform="translate(0,0)"/>
<path d="" fill="#000002" transform="translate(0,0)"/>
<path d="" fill="#000002" transform="translate(0,0)"/>
<path d="" fill="#000002" transform="translate(0,0)"/>
<path d="" fill="#000002" transform="translate(0,0)"/>
<path d="" fill="#000002" transform="translate(0,0)"/>
<path d="" fill="#000002" transform="translate(0,0)"/>
<path d="" fill="#000002" transform="translate(0,0)"/>
<path d="" fill="#000002" transform="translate(0,0)"/>
<path d="" fill="#000002" transform="translate(0,0)"/>
<path d="" fill="#000002" transform="translate(0,0)"/>
<path d="" fill="#000002" transform="translate(0,0)"/>
<path d="" fill="#000002" transform="translate(0,0)"/>
<path d="" fill="#000002" transform="translate(0,0)"/>
<path d="" fill="#000002" transform="translate(0,0)"/>
<path d="" fill="#000002" transform="translate(0,0)"/>
<path d="" fill="#000002" transform="translate(0,0)"/>
<path d="" fill="#000002" transform="translate(0,0)"/>
<path d="" fill="#000002" transform="translate(0,0)"/>
<path d="" fill="#000002" transform="translate(0,0)"/>
<path d="" fill="#000002" transform="translate(0,0)"/>
<path d="" fill="#000002" transform="translate(0,0)"/>
<path d="" fill="#000002" transform="translate(0,0)"/>
<path d="" fill="#000002" transform="translate(0,0)"/>
<path d="" fill="#000002" transform="translate(0,0)"/>
<path d="" fill="#000002" transform="translate(0,0)"/>
<path d="" fill="#000002" transform="translate(0,0)"/>
<path d="" fill="#000002" transform="translate(0,0)"/>
<path d="" fill="#000002" transform="translate(0,0)"/>
<path d="" fill="#000002" transform="translate(0,0)"/>
<path d="" fill="#000002" transform="translate(0,0)"/>
<path d="" fill="#000002" transform="translate(0,0)"/>
<path d="" fill="#000002" transform="translate(0,0)"/>
<path d="" fill="#000002" transform="translate(0,0)"/>
<path d="" fill="#000002" transform="translate(0,0)"/>
<path d="" fill="#000002" transform="translate(0,0)"/>
<path d="" fill="#000002" transform="translate(0,0)"/>
<path d="" fill="#000002" transform="translate(0,0)"/>
<path d="" fill="#000002" transform="translate(0,0)"/>
<path d="" fill="#000002" transform="translate(0,0)"/>
<path d="" fill="#000002" transform="translate(0,0)"/>
<path d="" fill="#000002" transform="translate(0,0)"/>
<path d="" fill="#000002" transform="translate(0,0)"/>
<path d="" fill="#000002" transform="translate(0,0)"/>
<path d="" fill="#000002" transform="translate(0,0)"/>
<path d="" fill="#000002" transform="translate(0,0)"/>
<path d="" fill="#000002" transform="translate(0,0)"/>
<path d="" fill="#000002" transform="translate(0,0)"/>
<path d="" fill="#000002" transform="translate(0,0)"/>
<path d="" fill="#000002" transform="translate(0,0)"/>
<path d="" fill="#000002" transform="translate(0,0)"/>
<path d="" fill="#000002" transform="translate(0,0)"/>
<path d="" fill="#000002" transform="translate(0,0)"/>
<path d="" fill="#000002" transform="translate(0,0)"/>
<path d="" fill="#000002" transform="translate(0,0)"/>
<path d="" fill="#000002" transform="translate(0,0)"/>
<path d="" fill="#F7F8FA" transform="translate(0,0)"/>
<path d="" fill="#000002" transform="translate(0,0)"/>
<path d="" fill="#000002" transform="translate(0,0)"/>
<path d="" fill="#000002" transform="translate(0,0)"/>
<path d="" fill="#000002" transform="translate(0,0)"/>
<path d="" fill="#000002" transform="translate(0,0)"/>
<path d="" fill="#000002" transform="translate(0,0)"/>
<path d="" fill="#000002" transform="translate(0,0)"/>
<path d="" fill="#000002" transform="translate(0,0)"/>
<path d="" fill="#000002" transform="translate(0,0)"/>
<path d="" fill="#000002" transform="translate(0,0)"/>
<path d="" fill="#000002" transform="translate(0,0)"/>
<path d="" fill="#000002" transform="translate(0,0)"/>
<path d="" fill="#000002" transform="translate(0,0)"/>
<path d="" fill="#000002" transform="translate(0,0)"/>
<path d="" fill="#000002" transform="translate(0,0)"/>
<path d="" fill="#000002" transform="translate(0,0)"/>
<path d="" fill="#000002" transform="translate(0,0)"/>
<path d="" fill="#000002" transform="translate(0,0)"/>
<path d="" fill="#000002" transform="translate(0,0)"/>
<path d="" fill="#000002" transform="translate(0,0)"/>
<path d="" fill="#000002" transform="translate(0,0)"/>
<path d="" fill="#000002" transform="translate(0,0)"/>
<path d="" fill="#000002" transform="translate(0,0)"/>
<path d="" fill="#000002" transform="translate(0,0)"/>
<path d="" fill="#000002" transform="translate(0,0)"/>
<path d="" fill="#000002" transform="translate(0,0)"/>
<path d="" fill="#000002" transform="translate(0,0)"/>
<path d="" fill="#000002" transform="translate(0,0)"/>
<path d="" fill="#000002" transform="translate(0,0)"/>
<path d="" fill="#000002" transform="translate(0,0)"/>
<path d="" fill="#000002" transform="translate(0,0)"/>
<path d="" fill="#000002" transform="translate(0,0)"/>
<path d="" fill="#000002" transform="translate(0,0)"/>
<path d="" fill="#000002" transform="translate(0,0)"/>
<path d="" fill="#000002" transform="translate(0,0)"/>
<path d="" fill="#000002" transform="translate(0,0)"/>
<path d="" fill="#000002" transform="translate(0,0)"/>
<path d="" fill="#000002" transform="translate(0,0)"/>
<path d="" fill="#000002" transform="translate(0,0)"/>
<path d="" fill="#000002" transform="translate(0,0)"/>
<path d="" fill="#000002" transform="translate(0,0)"/>
<path d="" fill="#000002" transform="translate(0,0)"/>
<path d="" fill="#000002" transform="translate(0,0)"/>
<path d="" fill="#000002" transform="translate(0,0)"/>
<path d="" fill="#000002" transform="translate(0,0)"/>
<path d="" fill="#000002" transform="translate(0,0)"/>
<path d="" fill="#000002" transform="translate(0,0)"/>
<path d="" fill="#000002" transform="translate(0,0)"/>
<path d="" fill="#000002" transform="translate(0,0)"/>
<path d="" fill="#000002" transform="translate(0,0)"/>
<path d="" fill="#000002" transform="translate(0,0)"/>
<path d="" fill="#000002" transform="translate(0,0)"/>
<path d="" fill="#000002" transform="translate(0,0)"/>
<path d="" fill="#000002" transform="translate(0,0)"/>
<path d="" fill="#000002" transform="translate(0,0)"/>
<path d="" fill="#000002" transform="translate(0,0)"/>
<path d="" fill="#000002" transform="translate(0,0)"/>
<path d="" fill="#000002" transform="translate(0,0)"/>
<path d="" fill="#000002" transform="translate(0,0)"/>
<path d="" fill="#000002" transform="translate(0,0)"/>
<path d="" fill="#000002" transform="translate(0,0)"/>
<path d="" fill="#000002" transform="translate(0,0)"/>
<path d="" fill="#000002" transform="translate(0,0)"/>
<path d="" fill="#000002" transform="translate(0,0)"/>
<path d="" fill="#000002" transform="translate(0,0)"/>
<path d="" fill="#000002" transform="translate(0,0)"/>
<path d="" fill="#000002" transform="translate(0,0)"/>
<path d="" fill="#000002" transform="translate(0,0)"/>
<path d="" fill="#000002" transform="translate(0,0)"/>
<path d="" fill="#000002" transform="translate(0,0)"/>
<path d="" fill="#000002" transform="translate(0,0)"/>
<path d="" fill="#000002" transform="translate(0,0)"/>
<path d="" fill="#000002" transform="translate(0,0)"/>
<path d="" fill="#000002" transform="translate(0,0)"/>
<path d="" fill="#000002" transform="translate(0,0)"/>
<path d="" fill="#000002" transform="translate(0,0)"/>
<path d="" fill="#000002" transform="translate(0,0)"/>
<path d="" fill="#000002" transform="translate(0,0)"/>
<path d="" fill="#000002" transform="translate(0,0)"/>
<path d="" fill="#000002" transform="translate(0,0)"/>
<path d="" fill="#000002" transform="translate(0,0)"/>
<path d="" fill="#000002" transform="translate(0,0)"/>
<path d="" fill="#000002" transform="translate(0,0)"/>
<path d="" fill="#000002" transform="translate(0,0)"/>
<path d="" fill="#000002" transform="translate(0,0)"/>
<path d="" fill="#000002" transform="translate(0,0)"/>
<path d="" fill="#000002" transform="translate(0,0)"/>
<path d="" fill="#000002" transform="translate(0,0)"/>
<path d="" fill="#000002" transform="translate(0,0)"/>
<path d="" fill="#000002" transform="translate(0,0)"/>
<path d="" fill="#000002" transform="translate(0,0)"/>
<path d="" fill="#000002" transform="translate(0,0)"/>
<path d="" fill="#000002" transform="translate(0,0)"/>
<path d="" fill="#000002" transform="translate(0,0)"/>
<path d="" fill="#000002" transform="translate(0,0)"/>
<path d="" fill="#000002" transform="translate(0,0)"/>
<path d="" fill="#000002" transform="translate(0,0)"/>
<path d="" fill="#000002" transform="translate(0,0)"/>
<path d="" fill="#000002" transform="translate(0,0)"/>
<path d="" fill="#000002" transform="translate(0,0)"/>
<path d="" fill="#000002" transform="translate(0,0)"/>
<path d="" fill="#000002" transform="translate(0,0)"/>
<path d="" fill="#000002" transform="translate(0,0)"/>
<path d="" fill="#000002" transform="translate(0,0)"/>
<path d="" fill="#000002" transform="translate(0,0)"/>
<path d="" fill="#000002" transform="translate(0,0)"/>
<path d="" fill="#000002" transform="translate(0,0)"/>
<path d="" fill="#000002" transform="translate(0,0)"/>
<path d="" fill="#000002" transform="translate(0,0)"/>
<path d="" fill="#000002" transform="translate(0,0)"/>
<path d="" fill="#000002" transform="translate(0,0)"/>
<path d="" fill="#000002" transform="translate(0,0)"/>
<path d="" fill="#000002" transform="translate(0,0)"/>
<path d="" fill="#000002" transform="translate(0,0)"/>
<path d="" fill="#000002" transform="translate(0,0)"/>
<path d="" fill="#000002" transform="translate(0,0)"/>
<path d="" fill="#000002" transform="translate(0,0)"/>
<path d="" fill="#000002" transform="translate(0,0)"/>
<path d="" fill="#000002" transform="translate(0,0)"/>
<path d="" fill="#000002" transform="translate(0,0)"/>
<path d="" fill="#000002" transform="translate(0,0)"/>
<path d="" fill="#000002" transform="translate(0,0)"/>
<path d="" fill="#000002" transform="translate(0,0)"/>
<path d="" fill="#000002" transform="translate(0,0)"/>
<path d="" fill="#000002" transform="translate(0,0)"/>
<path d="" fill="#000002" transform="translate(0,0)"/>
<path d="" fill="#000002" transform="translate(0,0)"/>
<path d="" fill="#000002" transform="translate(0,0)"/>
<path d="" fill="#000002" transform="translate(0,0)"/>
<path d="" fill="#000002" transform="translate(0,0)"/>
<path d="" fill="#000002" transform="translate(0,0)"/>
<path d="" fill="#000002" transform="translate(0,0)"/>
<path d="" fill="#000002" transform="translate(0,0)"/>
<path d="" fill="#000002" transform="translate(0,0)"/>
<path d="" fill="#000002" transform="translate(0,0)"/>
<path d="" fill="#000002" transform="translate(0,0)"/>
<path d="" fill="#000002" transform="translate(0,0)"/>
<path d="" fill="#000002" transform="translate(0,0)"/>
<path d="" fill="#000002" transform="translate(0,0)"/>
<path d="" fill="#000002" transform="translate(0,0)"/>
<path d="" fill="#000002" transform="translate(0,0)"/>
<path d="" fill="#000002" transform="translate(0,0)"/>
<path d="" fill="#000002" transform="translate(0,0)"/>
<path d="" fill="#000002" transform="translate(0,0)"/>
<path d="" fill="#000002" transform="translate(0,0)"/>
<path d="" fill="#000002" transform="translate(0,0)"/>
<path d="" fill="#000002" transform="translate(0,0)"/>
<path d="" fill="#000002" transform="translate(0,0)"/>
<path d="" fill="#000002" transform="translate(0,0)"/>
<path d="" fill="#000002" transform="translate(0,0)"/>
<path d="" fill="#000002" transform="translate(0,0)"/>
<path d="" fill="#000002" transform="translate(0,0)"/>
<path d="" fill="#000002" transform="translate(0,0)"/>
<path d="" fill="#000002" transform="translate(0,0)"/>
<path d="" fill="#000002" transform="translate(0,0)"/>
<path d="" fill="#000002" transform="translate(0,0)"/>
<path d="" fill="#000002" transform="translate(0,0)"/>
<path d="" fill="#000002" transform="translate(0,0)"/>
<path d="" fill="#000002" transform="translate(0,0)"/>
<path d="" fill="#000002" transform="translate(0,0)"/>
<path d="" fill="#000002" transform="translate(0,0)"/>
<path d="" fill="#000002" transform="translate(0,0)"/>
<path d="" fill="#000002" transform="translate(0,0)"/>
<path d="" fill="#000002" transform="translate(0,0)"/>
<path d="" fill="#000002" transform="translate(0,0)"/>
<path d="" fill="#000002" transform="translate(0,0)"/>
<path d="" fill="#000002" transform="translate(0,0)"/>
<path d="" fill="#000002" transform="translate(0,0)"/>
<path d="" fill="#000002" transform="translate(0,0)"/>
<path d="" fill="#000002" transform="translate(0,0)"/>
<path d="" fill="#000002" transform="translate(0,0)"/>
<path d="" fill="#000002" transform="translate(0,0)"/>
<path d="" fill="#000002" transform="translate(0,0)"/>
<path d="" fill="#000002" transform="translate(0,0)"/>
<path d="" fill="#000002" transform="translate(0,0)"/>
<path d="" fill="#000002" transform="translate(0,0)"/>
<path d="" fill="#000002" transform="translate(0,0)"/>
<path d="" fill="#000002" transform="translate(0,0)"/>
<path d="" fill="#000002" transform="translate(0,0)"/>
<path d="" fill="#000002" transform="translate(0,0)"/>
<path d="" fill="#000002" transform="translate(0,0)"/>
<path d="" fill="#000002" transform="translate(0,0)"/>
<path d="" fill="#000002" transform="translate(0,0)"/>
<path d="" fill="#000002" transform="translate(0,0)"/>
<path d="" fill="#000002" transform="translate(0,0)"/>
<path d="" fill="#000002" transform="translate(0,0)"/>
<path d="" fill="#000002" transform="translate(0,0)"/>
<path d="" fill="#000002" transform="translate(0,0)"/>
<path d="" fill="#000002" transform="translate(0,0)"/>
<path d="" fill="#000002" transform="translate(0,0)"/>
<path d="" fill="#000002" transform="translate(0,0)"/>
<path d="" fill="#000002" transform="translate(0,0)"/>
<path d="" fill="#000002" transform="translate(0,0)"/>
<path d="" fill="#000002" transform="translate(0,0)"/>
<path d="" fill="#000002" transform="translate(0,0)"/>
<path d="" fill="#000002" transform="translate(0,0)"/>
<path d="" fill="#000002" transform="translate(0,0)"/>
<path d="" fill="#000002" transform="translate(0,0)"/>
<path d="" fill="#000002" transform="translate(0,0)"/>
<path d="" fill="#000002" transform="translate(0,0)"/>
<path d="" fill="#000002" transform="translate(0,0)"/>
<path d="" fill="#000002" transform="translate(0,0)"/>
<path d="" fill="#000002" transform="translate(0,0)"/>
<path d="" fill="#000002" transform="translate(0,0)"/>
<path d="" fill="#000002" transform="translate(0,0)"/>
<path d="" fill="#000002" transform="translate(0,0)"/>
<path d="" fill="#000002" transform="translate(0,0)"/>
<path d="" fill="#000002" transform="translate(0,0)"/>
<path d="" fill="#000002" transform="translate(0,0)"/>
<path d="" fill="#000002" transform="translate(0,0)"/>
<path d="" fill="#000002" transform="translate(0,0)"/>
<path d="" fill="#000002" transform="translate(0,0)"/>
<path d="" fill="#000002" transform="translate(0,0)"/>
<path d="" fill="#000002" transform="translate(0,0)"/>
<path d="" fill="#000002" transform="translate(0,0)"/>
<path d="" fill="#000002" transform="translate(0,0)"/>
<path d="" fill="#000002" transform="translate(0,0)"/>
<path d="" fill="#000002" transform="translate(0,0)"/>
<path d="" fill="#000002" transform="translate(0,0)"/>
<path d="" fill="#000002" transform="translate(0,0)"/>
<path d="" fill="#000002" transform="translate(0,0)"/>
<path d="" fill="#000002" transform="translate(0,0)"/>
<path d="" fill="#000002" transform="translate(0,0)"/>
<path d="" fill="#000002" transform="translate(0,0)"/>
<path d="" fill="#000002" transform="translate(0,0)"/>
<path d="" fill="#000002" transform="translate(0,0)"/>
<path d="" fill="#000002" transform="translate(0,0)"/>
<path d="" fill="#000002" transform="translate(0,0)"/>
<path d="" fill="#000002" transform="translate(0,0)"/>
<path d="" fill="#000002" transform="translate(0,0)"/>
<path d="" fill="#000002" transform="translate(0,0)"/>
<path d="" fill="#000002" transform="translate(0,0)"/>
<path d="" fill="#000002" transform="translate(0,0)"/>
<path d="" fill="#000002" transform="translate(0,0)"/>
<path d="" fill="#000002" transform="translate(0,0)"/>
<path d="" fill="#000002" transform="translate(0,0)"/>
<path d="" fill="#000002" transform="translate(0,0)"/>
<path d="" fill="#000002" transform="translate(0,0)"/>
<path d="" fill="#000002" transform="translate(0,0)"/>
<path d="" fill="#000002" transform="translate(0,0)"/>
<path d="" fill="#000002" transform="translate(0,0)"/>
<path d="" fill="#000002" transform="translate(0,0)"/>
<path d="" fill="#000002" transform="translate(0,0)"/>
<path d="" fill="#000002" transform="translate(0,0)"/>
<path d="" fill="#000002" transform="translate(0,0)"/>
<path d="" fill="#000002" transform="translate(0,0)"/>
<path d="" fill="#000002" transform="translate(0,0)"/>
<path d="" fill="#000002" transform="translate(0,0)"/>
<path d="" fill="#000002" transform="translate(0,0)"/>
<path d="" fill="#000002" transform="translate(0,0)"/>
<path d="" fill="#000002" transform="translate(0,0)"/>
<path d="" fill="#000002" transform="translate(0,0)"/>
<path d="" fill="#000002" transform="translate(0,0)"/>
<path d="" fill="#000002" transform="translate(0,0)"/>
<path d="" fill="#000002" transform="translate(0,0)"/>
<path d="" fill="#000002" transform="translate(0,0)"/>
<path d="" fill="#000002" transform="translate(0,0)"/>
<path d="" fill="#000002" transform="translate(0,0)"/>
<path d="" fill="#000002" transform="translate(0,0)"/>
<path d="" fill="#000002" transform="translate(0,0)"/>
<path d="" fill="#000002" transform="translate(0,0)"/>
<path d="" fill="#000002" transform="translate(0,0)"/>
<path d="" fill="#000002" transform="translate(0,0)"/>
<path d="" fill="#000002" transform="translate(0,0)"/>
<path d="" fill="#000002" transform="translate(0,0)"/>
<path d="" fill="#000002" transform="translate(0,0)"/>
<path d="" fill="#000002" transform="translate(0,0)"/>
<path d="" fill="#000002" transform="translate(0,0)"/>
<path d="" fill="#000002" transform="translate(0,0)"/>
<path d="" fill="#000002" transform="translate(0,0)"/>
<path d="" fill="#000002" transform="translate(0,0)"/>
<path d="" fill="#000002" transform="translate(0,0)"/>
<path d="" fill="#000002" transform="translate(0,0)"/>
<path d="" fill="#000002" transform="translate(0,0)"/>
<path d="" fill="#000002" transform="translate(0,0)"/>
<path d="" fill="#000002" transform="translate(0,0)"/>
<path d="" fill="#000002" transform="translate(0,0)"/>
<path d="" fill="#000002" transform="translate(0,0)"/>
<path d="" fill="#000002" transform="translate(0,0)"/>
<path d="" fill="#000002" transform="translate(0,0)"/>
<path d="" fill="#000002" transform="translate(0,0)"/>
<path d="" fill="#000002" transform="translate(0,0)"/>
<path d="" fill="#000002" transform="translate(0,0)"/>
<path d="" fill="#000002" transform="translate(0,0)"/>
<path d="" fill="#000002" transform="translate(0,0)"/>
<path d="" fill="#000002" transform="translate(0,0)"/>
<path d="" fill="#000002" transform="translate(0,0)"/>
<path d="" fill="#000002" transform="translate(0,0)"/>
<path d="" fill="#000002" transform="translate(0,0)"/>
<path d="" fill="#000002" transform="translate(0,0)"/>
<path d="" fill="#000002" transform="translate(0,0)"/>
<path d="" fill="#000002" transform="translate(0,0)"/>
<path d="" fill="#000002" transform="translate(0,0)"/>
<path d="" fill="#000002" transform="translate(0,0)"/>
<path d="" fill="#000002" transform="translate(0,0)"/>
<path d="" fill="#000002" transform="translate(0,0)"/>
<path d="" fill="#000002" transform="translate(0,0)"/>
<path d="" fill="#000002" transform="translate(0,0)"/>
<path d="" fill="#000002" transform="translate(0,0)"/>
<path d="" fill="#000002" transform="translate(0,0)"/>
<path d="" fill="#000002" transform="translate(0,0)"/>
<path d="" fill="#000002" transform="translate(0,0)"/>
<path d="" fill="#000002" transform="translate(0,0)"/>
<path d="" fill="#000002" transform="translate(0,0)"/>
<path d="" fill="#000002" transform="translate(0,0)"/>
<path d="" fill="#000002" transform="translate(0,0)"/>
<path d="" fill="#000002" transform="translate(0,0)"/>
<path d="" fill="#000002" transform="translate(0,0)"/>
<path d="" fill="#000002" transform="translate(0,0)"/>
<path d="" fill="#000002" transform="translate(0,0)"/>
<path d="" fill="#F7F8FA" transform="translate(0,0)"/>
<path d="" fill="#000002" transform="translate(0,0)"/>
<path d="" fill="#000002" transform="translate(0,0)"/>
<path d="" fill="#000002" transform="translate(0,0)"/>
<path d="" fill="#000002" transform="translate(0,0)"/>
<path d="" fill="#000002" transform="translate(0,0)"/>
<path d="" fill="#000002" transform="translate(0,0)"/>
<path d="" fill="#000002" transform="translate(0,0)"/>
<path d="" fill="#000002" transform="translate(0,0)"/>
<path d="" fill="#000002" transform="translate(0,0)"/>
<path d="" fill="#000002" transform="translate(0,0)"/>
<path d="" fill="#000002" transform="translate(0,0)"/>
<path d="" fill="#000002" transform="translate(0,0)"/>
<path d="" fill="#000002" transform="translate(0,0)"/>
<path d="" fill="#000002" transform="translate(0,0)"/>
<path d="" fill="#000002" transform="translate(0,0)"/>
<path d="" fill="#000002" transform="translate(0,0)"/>
<path d="" fill="#000002" transform="translate(0,0)"/>
<path d="" fill="#000002" transform="translate(0,0)"/>
<path d="" fill="#000002" transform="translate(0,0)"/>
<path d="" fill="#000002" transform="translate(0,0)"/>
<path d="" fill="#000002" transform="translate(0,0)"/>
<path d="" fill="#000002" transform="translate(0,0)"/>
<path d="" fill="#000002" transform="translate(0,0)"/>
<path d="" fill="#000002" transform="translate(0,0)"/>
<path d="" fill="#000002" transform="translate(0,0)"/>
<path d="" fill="#000002" transform="translate(0,0)"/>
<path d="" fill="#000002" transform="translate(0,0)"/>
</svg>
